<svg width="47" height="47" viewBox="0 0 47 47" fill="none" xmlns="http://www.w3.org/2000/svg">
<circle cx="23.9442" cy="23.0556" r="23.0556" fill="#FA503F"/>
<path d="M14.7227 21.9029C14.086 21.9029 13.5699 22.419 13.5699 23.0557C13.5699 23.6923 14.086 24.2084 14.7227 24.2084V21.9029ZM33.9822 23.8708C34.4324 23.4206 34.4324 22.6907 33.9822 22.2405L26.646 14.9043C26.1958 14.4541 25.4659 14.4541 25.0157 14.9043C24.5655 15.3545 24.5655 16.0844 25.0157 16.5346L31.5368 23.0557L25.0157 29.5768C24.5655 30.0269 24.5655 30.7568 25.0157 31.207C25.4659 31.6572 26.1958 31.6572 26.646 31.207L33.9822 23.8708ZM14.7227 24.2084H33.1671V21.9029H14.7227V24.2084Z" fill="white"/>
</svg>
