<svg width="23" height="25" viewBox="0 0 23 25" fill="none" xmlns="http://www.w3.org/2000/svg">
<path d="M17.0104 4.4312V3.17578C17.0104 2.98516 16.9347 2.80234 16.7999 2.66755C16.6651 2.53276 16.4823 2.45703 16.2917 2.45703C16.101 2.45703 15.9182 2.53276 15.7834 2.66755C15.6486 2.80234 15.5729 2.98516 15.5729 3.17578V4.3737H7.42708V3.17578C7.42708 2.98516 7.35136 2.80234 7.21657 2.66755C7.08177 2.53276 6.89896 2.45703 6.70833 2.45703C6.51771 2.45703 6.33489 2.53276 6.2001 2.66755C6.06531 2.80234 5.98958 2.98516 5.98958 3.17578V4.4312C4.92135 4.60397 3.94933 5.15086 3.24713 5.97419C2.54493 6.79753 2.15828 7.84367 2.15625 8.92578V17.3112C2.15625 17.909 2.27399 18.5009 2.50276 19.0532C2.73152 19.6055 3.06682 20.1073 3.48952 20.53C4.34321 21.3837 5.50105 21.8633 6.70833 21.8633H16.2917C16.8895 21.8633 17.4814 21.7455 18.0337 21.5168C18.586 21.288 19.0878 20.9527 19.5105 20.53C19.9332 20.1073 20.2685 19.6055 20.4972 19.0532C20.726 18.5009 20.8438 17.909 20.8438 17.3112V8.92578C20.8417 7.84367 20.4551 6.79753 19.7529 5.97419C19.0507 5.15086 18.0786 4.60397 17.0104 4.4312ZM8.05 17.8479H7.09167C6.90104 17.8479 6.71823 17.7721 6.58343 17.6373C6.44864 17.5026 6.37292 17.3197 6.37292 17.1291C6.37292 16.9385 6.44864 16.7557 6.58343 16.6209C6.71823 16.4861 6.90104 16.4104 7.09167 16.4104H8.05C8.24062 16.4104 8.42344 16.4861 8.55823 16.6209C8.69302 16.7557 8.76875 16.9385 8.76875 17.1291C8.76875 17.3197 8.69302 17.5026 8.55823 17.6373C8.42344 17.7721 8.24062 17.8479 8.05 17.8479ZM8.05 14.8962H7.09167C6.90104 14.8962 6.71823 14.8205 6.58343 14.6857C6.44864 14.5509 6.37292 14.3681 6.37292 14.1774C6.37292 13.9868 6.44864 13.804 6.58343 13.6692C6.71823 13.5344 6.90104 13.4587 7.09167 13.4587H8.05C8.24062 13.4587 8.42344 13.5344 8.55823 13.6692C8.69302 13.804 8.76875 13.9868 8.76875 14.1774C8.76875 14.3681 8.69302 14.5509 8.55823 14.6857C8.42344 14.8205 8.24062 14.8962 8.05 14.8962ZM11.9888 17.8479H11.0304C10.8398 17.8479 10.657 17.7721 10.5222 17.6373C10.3874 17.5026 10.3117 17.3197 10.3117 17.1291C10.3117 16.9385 10.3874 16.7557 10.5222 16.6209C10.657 16.4861 10.8398 16.4104 11.0304 16.4104H11.9888C12.1794 16.4104 12.3622 16.4861 12.497 16.6209C12.6318 16.7557 12.7075 16.9385 12.7075 17.1291C12.7075 17.3197 12.6318 17.5026 12.497 17.6373C12.3622 17.7721 12.1794 17.8479 11.9888 17.8479ZM11.9888 14.8962H11.0304C10.8398 14.8962 10.657 14.8205 10.5222 14.6857C10.3874 14.5509 10.3117 14.3681 10.3117 14.1774C10.3117 13.9868 10.3874 13.804 10.5222 13.6692C10.657 13.5344 10.8398 13.4587 11.0304 13.4587H11.9888C12.1794 13.4587 12.3622 13.5344 12.497 13.6692C12.6318 13.804 12.7075 13.9868 12.7075 14.1774C12.7075 14.3681 12.6318 14.5509 12.497 14.6857C12.3622 14.8205 12.1794 14.8962 11.9888 14.8962ZM15.9275 17.8479H14.9692C14.7785 17.8479 14.5957 17.7721 14.4609 17.6373C14.3261 17.5026 14.2504 17.3197 14.2504 17.1291C14.2504 16.9385 14.3261 16.7557 14.4609 16.6209C14.5957 16.4861 14.7785 16.4104 14.9692 16.4104H15.9275C16.1181 16.4104 16.3009 16.4861 16.4357 16.6209C16.5705 16.7557 16.6463 16.9385 16.6463 17.1291C16.6463 17.3197 16.5705 17.5026 16.4357 17.6373C16.3009 17.7721 16.1181 17.8479 15.9275 17.8479ZM15.9275 14.8962H14.9692C14.7785 14.8962 14.5957 14.8205 14.4609 14.6857C14.3261 14.5509 14.2504 14.3681 14.2504 14.1774C14.2504 13.9868 14.3261 13.804 14.4609 13.6692C14.5957 13.5344 14.7785 13.4587 14.9692 13.4587H15.9275C16.1181 13.4587 16.3009 13.5344 16.4357 13.6692C16.5705 13.804 16.6463 13.9868 16.6463 14.1774C16.6463 14.3681 16.5705 14.5509 16.4357 14.6857C16.3009 14.8205 16.1181 14.8962 15.9275 14.8962ZM19.4062 10.1045H3.59375V8.90661C3.59469 8.20713 3.83179 7.52845 4.26663 6.98055C4.70148 6.43265 5.30858 6.04762 5.98958 5.88786V6.98995C5.98958 7.18057 6.06531 7.36339 6.2001 7.49818C6.33489 7.63297 6.51771 7.7087 6.70833 7.7087C6.89896 7.7087 7.08177 7.63297 7.21657 7.49818C7.35136 7.36339 7.42708 7.18057 7.42708 6.98995V5.79203H15.5729V6.98995C15.5729 7.18057 15.6486 7.36339 15.7834 7.49818C15.9182 7.63297 16.101 7.7087 16.2917 7.7087C16.4823 7.7087 16.6651 7.63297 16.7999 7.49818C16.9347 7.36339 17.0104 7.18057 17.0104 6.98995V5.88786C17.6914 6.04762 18.2985 6.43265 18.7334 6.98055C19.1682 7.52845 19.4053 8.20713 19.4062 8.90661V10.1045Z" fill="#FA503F"/>
</svg>
