<svg width="157" height="54" viewBox="0 0 157 54" fill="none" xmlns="http://www.w3.org/2000/svg">
<g clip-path="url(#clip0_1807_2048)">
<path d="M43 22.31C43 26.8741 41.636 31.1122 39.3004 34.6237C38.8541 35.2953 38.3712 35.9395 37.8556 36.5542L37.8537 36.5561C37.1553 37.3908 36.3973 38.1724 35.5855 38.8932L29.4849 45.16L21.501 53.3633C19.6945 51.7568 18.0053 50.0953 16.5297 48.3141C15.7294 47.3498 14.9926 46.3521 14.3308 45.3093C14.2923 45.2484 14.2557 45.1875 14.2192 45.1286C14.1769 45.0579 14.1345 44.9872 14.0903 44.9185C14.048 44.8478 14.0056 44.779 13.9633 44.7103C13.9268 44.6475 13.8902 44.5866 13.8537 44.5237C13.794 44.4196 13.7344 44.3136 13.6767 44.2095C13.6055 44.0858 13.5381 43.9621 13.4708 43.8383C13.2053 43.3532 12.961 42.8603 12.732 42.3556C12.4435 41.4404 12.2626 40.5802 12.1722 39.7593C12.1722 39.7495 12.1703 39.7377 12.1703 39.7259C12.1684 39.7141 12.1664 39.7023 12.1664 39.6886C12.1568 39.6022 12.1472 39.5177 12.1395 39.4333C12.1376 39.4195 12.1376 39.4058 12.1376 39.392C12.1357 39.3783 12.1337 39.3645 12.1337 39.3508C12.128 39.2644 12.1222 39.176 12.1183 39.0896C12.1183 39.0523 12.1164 39.0169 12.1145 38.9796C12.1126 38.9737 12.1126 38.9659 12.1145 38.96C12.1126 38.9403 12.1126 38.9207 12.1106 38.9011C12.1106 38.8775 12.1087 38.8539 12.1087 38.8304C12.1068 38.7754 12.1068 38.7184 12.1068 38.6634C12.1049 38.3728 12.1183 38.0801 12.1433 37.7856C12.1953 37.163 12.3069 36.564 12.4723 35.9807V35.9788C12.6551 35.3307 12.9071 34.7062 13.2169 34.0934C13.2246 34.0738 13.2342 34.0541 13.2457 34.0345C13.2553 34.0149 13.265 33.9972 13.2746 33.9795C13.3131 33.9029 13.3535 33.8263 13.3958 33.7497C14.779 31.2163 17.5705 28.4825 20.4852 25.7959L22.2493 31.4441L23.1112 33.5396L24.8619 37.7973L27.5015 34.8966L27.3591 32.1707L27.2667 30.4032L26.9339 19.6076L33.1826 12.9362C35.0987 10.1651 32.1687 7.60225 29.8351 9.62115L23.4691 16.1688L7.20482 13.9732L4.3633 16.976L17.1492 22.31L11.9741 27.6459C6.81043 31.9508 2.53371 33.5298 0.657957 27.7166C0.657957 27.7146 0.656033 27.7127 0.656033 27.7107C0.227014 25.9825 0 24.1737 0 22.31C0 10.1887 9.62695 0.363281 21.501 0.363281C33.375 0.363281 43 10.1887 43 22.31Z" fill="url(#paint0_linear_1807_2048)"/>
<path d="M17.3936 5.51036C18.3536 5.33164 18.8788 4.78371 18.8903 3.80176C18.923 4.64035 19.2674 5.30218 20.4121 5.51036C19.5329 5.41216 18.9346 5.75388 18.9019 6.98722C18.8287 6.02883 18.3478 5.51429 17.3936 5.51036Z" fill="white"/>
<path d="M20.0635 7.98172C20.5906 7.88352 20.8792 7.58108 20.8869 7.04297C20.9061 7.50449 21.0927 7.86781 21.7238 7.98172C21.2409 7.92673 20.9119 8.11526 20.8946 8.79281C20.8523 8.26845 20.5887 7.98565 20.0635 7.98172Z" fill="white"/>
<path d="M15.6367 9.34207C16.1639 9.24387 16.4524 8.94143 16.4601 8.40332C16.4794 8.86484 16.666 9.22816 17.297 9.34207C16.8141 9.28708 16.4851 9.47561 16.4678 10.1532C16.4255 9.62684 16.1619 9.34403 15.6367 9.34207Z" fill="white"/>
<path d="M7.46094 25.1204C7.98807 25.0222 8.27665 24.7198 8.28435 24.1816C8.30358 24.6432 8.4902 25.0065 9.12122 25.1204C8.63833 25.0654 8.30936 25.2539 8.29204 25.9315C8.24972 25.4052 7.98615 25.1224 7.46094 25.1204Z" fill="white"/>
<path d="M4.84766 23.2545C5.81343 23.0758 6.33864 22.524 6.35018 21.5381C6.38289 22.3806 6.72726 23.0464 7.87965 23.2545C6.9966 23.1544 6.39443 23.4981 6.36365 24.7373C6.28862 23.7769 5.80573 23.2585 4.84766 23.2545Z" fill="white"/>
<path d="M33.9814 21.8385C34.9414 21.6598 35.4667 21.1118 35.4782 20.1299C35.5109 20.9685 35.8553 21.6303 37 21.8385C36.1208 21.7403 35.5224 22.082 35.4897 23.3153C35.4166 22.3589 34.9338 21.8424 33.9814 21.8385Z" fill="white"/>
<path d="M36.6514 24.3108C37.1785 24.2126 37.4671 23.9102 37.4748 23.3721C37.494 23.8336 37.6806 24.1969 38.3117 24.3108C37.8288 24.2558 37.4998 24.4444 37.4825 25.1219C37.4401 24.5956 37.1766 24.3128 36.6514 24.3108Z" fill="white"/>
<path d="M34.6602 26.2141C35.1873 26.1159 35.4759 25.8135 35.4836 25.2754C35.5028 25.7369 35.6894 26.1002 36.3204 26.2141C35.8376 26.1592 35.5086 26.3477 35.4913 27.0252C35.4489 26.4989 35.1854 26.2161 34.6602 26.2141Z" fill="white"/>
<path d="M32.2246 25.6702C32.7517 25.572 33.0403 25.2696 33.048 24.7314C33.0673 25.193 33.2539 25.5563 33.8849 25.6702C33.402 25.6152 33.073 25.8037 33.0557 26.4813C33.0134 25.9569 32.7498 25.6722 32.2246 25.6702Z" fill="white"/>
<path d="M37.8561 36.5543L37.8542 36.5562C37.05 37.5873 32.8291 41.7802 29.4854 45.1601L16.5302 48.3142L16.3936 48.3476C16.3898 48.3417 16.3859 48.3377 16.3821 48.3338C16.2282 48.1649 14.793 46.3247 13.4713 43.8384C12.2227 41.845 11.6167 38.8422 12.4728 35.9808V35.9789C12.4728 35.9789 16.5379 30.9866 20.0643 34.4843C20.0643 34.4843 20.8685 32.7659 22.2498 31.4442L23.1117 33.5397L24.8624 37.7974L27.5019 34.8967L27.3596 32.1708L27.2672 30.4033C28.2138 30.8845 29.2276 31.7761 30.2896 33.2412C30.2896 33.2412 35.9111 28.9147 37.8561 36.5543Z" fill="#D36C7B"/>
<path d="M13.9521 44.7104C13.9637 44.677 16.6532 43.0921 18.4655 45.8789C18.4597 45.8651 20.4221 43.9052 21.9669 45.1601C21.9746 45.1562 25.5876 39.3175 29.4834 45.1601L21.4994 53.3633C16.8168 49.6751 15.2681 46.9296 13.9521 44.7104Z" fill="#D8B6BF"/>
</g>
<path d="M60.1309 35.5586C59.4473 35.5586 58.9427 35.4162 58.6172 35.1313C58.2917 34.8465 58.1289 34.3908 58.1289 33.7642V18.2612C57.8685 18.2856 57.543 18.3345 57.1523 18.4077C56.7699 18.4728 56.367 18.5705 55.9438 18.7007C55.5207 18.8309 55.0975 18.9896 54.6743 19.1768C54.2511 19.3558 53.8727 19.5674 53.5391 19.8115C53.2054 20.0475 52.9328 20.3161 52.7212 20.6172C52.5096 20.9183 52.4038 21.252 52.4038 21.6182C52.4038 21.8786 52.4364 22.0861 52.5015 22.2407C52.5747 22.3953 52.6561 22.5133 52.7456 22.5947C52.8351 22.668 52.9246 22.7168 53.0142 22.7412C53.1118 22.7575 53.181 22.7656 53.2217 22.7656C53.4251 22.7656 53.592 22.7331 53.7222 22.668C53.8524 22.5947 53.9704 22.5215 54.0762 22.4482C54.182 22.3669 54.2796 22.2936 54.3691 22.2285C54.4668 22.1553 54.5767 22.1187 54.6987 22.1187C54.7964 22.1187 54.8981 22.1431 55.0039 22.1919C55.1178 22.2326 55.2196 22.3018 55.3091 22.3994C55.4067 22.4971 55.4881 22.6273 55.5532 22.79C55.6183 22.9447 55.6509 23.1359 55.6509 23.3638C55.6509 23.6893 55.5858 23.9701 55.4556 24.2061C55.3335 24.4421 55.1707 24.6414 54.9673 24.8042C54.772 24.9588 54.5441 25.0768 54.2837 25.1582C54.0314 25.2314 53.7791 25.2681 53.5269 25.2681C53.1362 25.2681 52.7822 25.203 52.4648 25.0728C52.1556 24.9344 51.8911 24.7472 51.6714 24.5112C51.4517 24.2752 51.2848 23.9985 51.1709 23.6812C51.057 23.3638 51 23.026 51 22.668C51 21.7158 51.2604 20.8939 51.7812 20.2021C52.3102 19.5023 53.0304 18.9245 53.9419 18.4688C54.8534 18.0049 55.9154 17.6631 57.1279 17.4434C58.3405 17.2236 59.6385 17.1138 61.022 17.1138C61.6812 17.1138 62.3241 17.1219 62.9507 17.1382C63.5773 17.1463 64.147 17.1626 64.6597 17.187C65.1805 17.2114 65.6281 17.2399 66.0024 17.2725C66.3768 17.305 66.6494 17.3416 66.8203 17.3823C66.9831 17.423 67.1133 17.484 67.2109 17.5654C67.3086 17.6387 67.3818 17.7241 67.4307 17.8218C67.4795 17.9194 67.512 18.0252 67.5283 18.1392C67.5446 18.245 67.5527 18.3548 67.5527 18.4688C67.5527 18.5583 67.5405 18.6641 67.5161 18.7861C67.4917 18.9001 67.4551 19.0099 67.4062 19.1157C67.3574 19.2215 67.2964 19.311 67.2231 19.3843C67.1499 19.4575 67.0604 19.4941 66.9546 19.4941C66.8895 19.4941 66.8203 19.4657 66.7471 19.4087C66.682 19.3517 66.5884 19.2826 66.4663 19.2012C66.3442 19.1198 66.1774 19.0262 65.9658 18.9204C65.7624 18.8146 65.4897 18.717 65.1479 18.6274C64.8143 18.5379 64.3993 18.4565 63.9028 18.3833C63.4146 18.3101 62.8205 18.2612 62.1206 18.2368V33.7642C62.1206 34.3908 61.9578 34.8465 61.6323 35.1313C61.3068 35.4162 60.8063 35.5586 60.1309 35.5586ZM70.458 25.2681C70.7673 24.7961 71.0968 24.3688 71.4468 23.9863C71.5933 23.8236 71.752 23.6649 71.9229 23.5103C72.0938 23.3556 72.2687 23.2173 72.4478 23.0952C72.6349 22.9731 72.8262 22.8755 73.0215 22.8022C73.2168 22.729 73.4121 22.6924 73.6074 22.6924C74.0225 22.6924 74.348 22.8185 74.584 23.0708C74.82 23.3149 74.938 23.6608 74.938 24.1084C74.938 24.3851 74.9136 24.6536 74.8647 24.9141C74.8241 25.1663 74.7386 25.4756 74.6084 25.8418H74.2666C74.2178 25.5895 74.1038 25.382 73.9248 25.2192C73.7458 25.0483 73.4854 24.9629 73.1436 24.9629C72.8913 24.9629 72.6431 25.0117 72.3989 25.1094C72.1548 25.1989 71.9147 25.3128 71.6787 25.4512C71.4508 25.5895 71.2311 25.7401 71.0195 25.9028C70.8161 26.0656 70.6289 26.2202 70.458 26.3667V34.2891C70.458 34.3949 70.4417 34.521 70.4092 34.6675C70.3766 34.814 70.2952 34.9523 70.165 35.0825C70.043 35.2127 69.8558 35.3226 69.6035 35.4121C69.3594 35.5098 69.0216 35.5586 68.5903 35.5586C68.159 35.5586 67.8172 35.5057 67.5649 35.3999C67.3208 35.3022 67.1336 35.1842 67.0034 35.0459C66.8732 34.9076 66.7918 34.7651 66.7593 34.6187C66.7267 34.4722 66.7104 34.3542 66.7104 34.2646V24.8408C66.7104 24.6048 66.6535 24.4014 66.5396 24.2305C66.4338 24.0514 66.2507 23.9619 65.9902 23.9619C65.8519 23.9619 65.7339 23.9863 65.6362 24.0352C65.5386 24.084 65.4328 24.1532 65.3188 24.2427L65.0625 23.9375C65.2497 23.7829 65.4572 23.6323 65.6851 23.4858C65.9211 23.3312 66.1733 23.1969 66.4419 23.083C66.7104 22.9691 66.9993 22.8755 67.3086 22.8022C67.6178 22.729 67.9434 22.6924 68.2852 22.6924C68.6351 22.6924 68.9321 22.7412 69.1763 22.8389C69.4285 22.9284 69.632 23.0505 69.7866 23.2051C69.9494 23.3516 70.0755 23.5184 70.165 23.7056C70.2546 23.8927 70.3197 24.084 70.3604 24.2793C70.4092 24.4665 70.4377 24.6496 70.4458 24.8286C70.4539 24.9995 70.458 25.146 70.458 25.2681ZM80.3945 34.2646C80.3945 34.3704 80.3742 34.5007 80.3335 34.6553C80.3009 34.8018 80.2155 34.9442 80.0771 35.0825C79.9469 35.2127 79.7557 35.3226 79.5034 35.4121C79.2511 35.5098 78.9093 35.5586 78.478 35.5586C78.0467 35.5586 77.709 35.5057 77.4648 35.3999C77.2207 35.3022 77.0376 35.1842 76.9155 35.0459C76.7935 34.9076 76.7161 34.7651 76.6836 34.6187C76.6592 34.4722 76.647 34.3542 76.647 34.2646V24.8408C76.647 24.6048 76.59 24.4014 76.4761 24.2305C76.3703 24.0514 76.1872 23.9619 75.9268 23.9619C75.7884 23.9619 75.6704 23.9863 75.5728 24.0352C75.4751 24.084 75.3693 24.1532 75.2554 24.2427L74.999 23.9375C75.1862 23.7829 75.3937 23.6323 75.6216 23.4858C75.8576 23.3312 76.1099 23.1969 76.3784 23.083C76.647 22.9691 76.9359 22.8755 77.2451 22.8022C77.5544 22.729 77.8799 22.6924 78.2217 22.6924C78.7507 22.6924 79.1616 22.7656 79.4546 22.9121C79.7476 23.0505 79.9632 23.2254 80.1016 23.437C80.2399 23.6405 80.3213 23.8602 80.3457 24.0962C80.3783 24.3322 80.3945 24.5397 80.3945 24.7188V34.2646ZM76.2686 19.9092C76.2686 19.6813 76.3174 19.4657 76.415 19.2622C76.5208 19.0506 76.6632 18.8675 76.8423 18.7129C77.0295 18.5583 77.241 18.4362 77.4771 18.3467C77.7212 18.2572 77.9857 18.2124 78.2705 18.2124C78.5472 18.2124 78.8035 18.2572 79.0396 18.3467C79.2837 18.4362 79.4953 18.5583 79.6743 18.7129C79.8534 18.8675 79.9917 19.0506 80.0894 19.2622C80.1951 19.4657 80.248 19.6813 80.248 19.9092C80.248 20.1452 80.1951 20.3649 80.0894 20.5684C79.9917 20.7718 79.8534 20.9508 79.6743 21.1055C79.4953 21.252 79.2837 21.37 79.0396 21.4595C78.8035 21.549 78.5472 21.5938 78.2705 21.5938C77.9857 21.5938 77.7212 21.549 77.4771 21.4595C77.241 21.37 77.0295 21.252 76.8423 21.1055C76.6632 20.9508 76.5208 20.7718 76.415 20.5684C76.3174 20.3649 76.2686 20.1452 76.2686 19.9092ZM83.6294 24.8408C83.6294 24.6048 83.5724 24.4014 83.4585 24.2305C83.3527 24.0514 83.1696 23.9619 82.9092 23.9619C82.7708 23.9619 82.6528 23.9863 82.5552 24.0352C82.4575 24.084 82.3517 24.1532 82.2378 24.2427L81.9814 23.9375C82.1686 23.7829 82.3761 23.6323 82.604 23.4858C82.84 23.3312 83.0923 23.1969 83.3608 23.083C83.6294 22.9691 83.9183 22.8755 84.2275 22.8022C84.5368 22.729 84.8623 22.6924 85.2041 22.6924C85.5703 22.6924 85.8836 22.7493 86.144 22.8633C86.4045 22.9772 86.6201 23.1156 86.791 23.2783C86.9701 23.4329 87.1043 23.5998 87.1938 23.7788C87.2834 23.9497 87.3363 24.0962 87.3525 24.2183C87.5153 23.9904 87.7065 23.7829 87.9263 23.5957C88.1541 23.4085 88.3983 23.2498 88.6587 23.1196C88.9272 22.9813 89.208 22.8755 89.501 22.8022C89.8021 22.729 90.1113 22.6924 90.4287 22.6924C91.0798 22.6924 91.6698 22.8267 92.1987 23.0952C92.7277 23.3638 93.1794 23.7625 93.5537 24.2915C93.9362 24.8205 94.2292 25.4756 94.4326 26.2568C94.6361 27.0381 94.7378 27.9414 94.7378 28.9668C94.7378 30.1549 94.6117 31.1681 94.3594 32.0063C94.1152 32.8364 93.7897 33.516 93.3828 34.0449C92.984 34.5739 92.5243 34.9604 92.0034 35.2046C91.4907 35.4406 90.9658 35.5586 90.4287 35.5586C89.9811 35.5586 89.5864 35.5138 89.2446 35.4243C88.911 35.3348 88.6221 35.2249 88.3779 35.0947C88.1338 34.9645 87.9303 34.8343 87.7676 34.7041C87.6048 34.5658 87.4746 34.4518 87.377 34.3623V40.3193C87.377 40.4251 87.3607 40.5513 87.3281 40.6978C87.2956 40.8442 87.2142 40.9826 87.084 41.1128C86.9619 41.2511 86.7747 41.3691 86.5225 41.4668C86.2783 41.5645 85.9406 41.6133 85.5093 41.6133C85.078 41.6133 84.7362 41.5604 84.4839 41.4546C84.2397 41.3569 84.0526 41.2349 83.9224 41.0884C83.7922 40.95 83.7108 40.8076 83.6782 40.6611C83.6457 40.5228 83.6294 40.4089 83.6294 40.3193V24.8408ZM87.377 32.6167C87.377 32.6818 87.4054 32.7957 87.4624 32.9585C87.5194 33.1213 87.6089 33.2881 87.731 33.459C87.853 33.6299 88.0076 33.7845 88.1948 33.9229C88.3901 34.0531 88.6261 34.1182 88.9028 34.1182C89.2609 34.1182 89.5661 33.9839 89.8184 33.7153C90.0706 33.4386 90.2782 33.0684 90.4409 32.6045C90.6037 32.1325 90.7217 31.5872 90.7949 30.9688C90.8682 30.3421 90.9048 29.6748 90.9048 28.9668C90.9048 28.096 90.856 27.3595 90.7583 26.7573C90.6688 26.1551 90.5345 25.6709 90.3555 25.3047C90.1764 24.9303 89.9608 24.6618 89.7085 24.499C89.4644 24.3281 89.1877 24.2427 88.8784 24.2427C88.6994 24.2427 88.5203 24.2956 88.3413 24.4014C88.1623 24.499 87.9995 24.6252 87.853 24.7798C87.7147 24.9263 87.6007 25.0931 87.5112 25.2803C87.4217 25.4674 87.377 25.6465 87.377 25.8174V32.6167Z" fill="#393838"/>
<path d="M114.721 31.1641C115.014 30.4072 115.323 29.5649 115.648 28.6372C115.974 27.7013 116.271 26.7573 116.54 25.8052C116.816 24.8449 117.044 23.9131 117.223 23.0098C117.402 22.1064 117.492 21.3008 117.492 20.5928C117.492 20.0557 117.455 19.6081 117.382 19.25C117.309 18.8919 117.223 18.5949 117.125 18.3589C117.036 18.1147 116.955 17.9154 116.881 17.7607C116.808 17.6061 116.771 17.4637 116.771 17.3335C116.771 17.1626 116.816 17.0202 116.906 16.9062C117.003 16.7842 117.121 16.6825 117.26 16.6011C117.398 16.5197 117.549 16.4627 117.711 16.4302C117.874 16.3895 118.029 16.3691 118.175 16.3691C118.501 16.3691 118.773 16.418 118.993 16.5156C119.221 16.6133 119.38 16.7801 119.469 17.0161C119.51 17.1382 119.542 17.2684 119.567 17.4067C119.591 17.5369 119.608 17.6672 119.616 17.7974C119.632 17.9194 119.64 18.0374 119.64 18.1514C119.64 18.2572 119.64 18.3426 119.64 18.4077C119.64 18.7495 119.583 19.2174 119.469 19.8115C119.355 20.4056 119.201 21.077 119.005 21.8257C118.818 22.5744 118.598 23.376 118.346 24.2305C118.094 25.085 117.833 25.9476 117.565 26.8184C117.296 27.681 117.024 28.5273 116.747 29.3574C116.47 30.1875 116.21 30.9565 115.966 31.6646C115.722 32.3644 115.502 32.9788 115.307 33.5078C115.119 34.0368 114.973 34.4315 114.867 34.6919C114.794 34.8791 114.7 35.0296 114.586 35.1436C114.481 35.2575 114.359 35.3429 114.22 35.3999C114.082 35.465 113.927 35.5057 113.756 35.522C113.594 35.5464 113.423 35.5586 113.244 35.5586C112.918 35.5586 112.654 35.526 112.45 35.4609C112.247 35.3958 112.08 35.3145 111.95 35.2168C111.828 35.1191 111.738 35.0133 111.681 34.8994C111.624 34.7855 111.579 34.6838 111.547 34.5942L106.92 20.0679C106.831 19.7912 106.737 19.5592 106.64 19.3721C106.55 19.1768 106.436 19.0181 106.298 18.896C106.168 18.7739 106.009 18.6844 105.822 18.6274C105.635 18.5705 105.403 18.542 105.126 18.542C104.898 18.542 104.634 18.599 104.333 18.7129C104.031 18.8187 103.743 18.9814 103.466 19.2012C103.197 19.4128 102.969 19.6813 102.782 20.0068C102.595 20.3242 102.501 20.6945 102.501 21.1177C102.501 21.3781 102.534 21.5856 102.599 21.7402C102.672 21.8949 102.754 22.0129 102.843 22.0942C102.933 22.1675 103.022 22.2163 103.112 22.2407C103.209 22.257 103.279 22.2651 103.319 22.2651C103.523 22.2651 103.69 22.2326 103.82 22.1675C103.95 22.0942 104.068 22.021 104.174 21.9478C104.28 21.8664 104.377 21.7931 104.467 21.728C104.564 21.6548 104.674 21.6182 104.796 21.6182C104.894 21.6182 104.996 21.6426 105.102 21.6914C105.215 21.7321 105.317 21.8013 105.407 21.8989C105.504 21.9966 105.586 22.1268 105.651 22.2896C105.716 22.4442 105.749 22.6354 105.749 22.8633C105.749 23.1888 105.683 23.4696 105.553 23.7056C105.431 23.9416 105.268 24.141 105.065 24.3037C104.87 24.4583 104.642 24.5763 104.381 24.6577C104.129 24.731 103.877 24.7676 103.625 24.7676C103.234 24.7676 102.884 24.6984 102.575 24.5601C102.274 24.4217 102.017 24.2345 101.806 23.9985C101.602 23.7625 101.444 23.4899 101.33 23.1807C101.224 22.8633 101.171 22.5256 101.171 22.1675C101.171 21.3211 101.334 20.5846 101.659 19.958C101.985 19.3232 102.416 18.7943 102.953 18.3711C103.49 17.9479 104.101 17.6346 104.784 17.4312C105.468 17.2196 106.172 17.1138 106.896 17.1138C107.71 17.1138 108.377 17.2399 108.898 17.4922C109.419 17.7363 109.838 18.0537 110.155 18.4443C110.481 18.835 110.737 19.2744 110.924 19.7627C111.111 20.2428 111.278 20.7189 111.425 21.1909L114.721 31.1641ZM125.072 34.2646C125.072 34.3704 125.052 34.5007 125.011 34.6553C124.979 34.8018 124.893 34.9442 124.755 35.0825C124.625 35.2127 124.433 35.3226 124.181 35.4121C123.929 35.5098 123.587 35.5586 123.156 35.5586C122.724 35.5586 122.387 35.5057 122.143 35.3999C121.898 35.3022 121.715 35.1842 121.593 35.0459C121.471 34.9076 121.394 34.7651 121.361 34.6187C121.337 34.4722 121.325 34.3542 121.325 34.2646V24.8408C121.325 24.6048 121.268 24.4014 121.154 24.2305C121.048 24.0514 120.865 23.9619 120.604 23.9619C120.466 23.9619 120.348 23.9863 120.25 24.0352C120.153 24.084 120.047 24.1532 119.933 24.2427L119.677 23.9375C119.864 23.7829 120.071 23.6323 120.299 23.4858C120.535 23.3312 120.788 23.1969 121.056 23.083C121.325 22.9691 121.614 22.8755 121.923 22.8022C122.232 22.729 122.558 22.6924 122.899 22.6924C123.428 22.6924 123.839 22.7656 124.132 22.9121C124.425 23.0505 124.641 23.2254 124.779 23.437C124.918 23.6405 124.999 23.8602 125.023 24.0962C125.056 24.3322 125.072 24.5397 125.072 24.7188V34.2646ZM120.946 19.9092C120.946 19.6813 120.995 19.4657 121.093 19.2622C121.199 19.0506 121.341 18.8675 121.52 18.7129C121.707 18.5583 121.919 18.4362 122.155 18.3467C122.399 18.2572 122.663 18.2124 122.948 18.2124C123.225 18.2124 123.481 18.2572 123.717 18.3467C123.961 18.4362 124.173 18.5583 124.352 18.7129C124.531 18.8675 124.669 19.0506 124.767 19.2622C124.873 19.4657 124.926 19.6813 124.926 19.9092C124.926 20.1452 124.873 20.3649 124.767 20.5684C124.669 20.7718 124.531 20.9508 124.352 21.1055C124.173 21.252 123.961 21.37 123.717 21.4595C123.481 21.549 123.225 21.5938 122.948 21.5938C122.663 21.5938 122.399 21.549 122.155 21.4595C121.919 21.37 121.707 21.252 121.52 21.1055C121.341 20.9508 121.199 20.7718 121.093 20.5684C120.995 20.3649 120.946 20.1452 120.946 19.9092ZM132.079 23.6689C131.892 23.6689 131.713 23.6934 131.542 23.7422C131.379 23.791 131.233 23.8724 131.103 23.9863C130.972 24.0921 130.871 24.2305 130.797 24.4014C130.724 24.5641 130.688 24.7594 130.688 24.9873C130.688 25.3047 130.801 25.6221 131.029 25.9395C131.265 26.2487 131.554 26.5742 131.896 26.916C132.246 27.2497 132.62 27.5996 133.019 27.9658C133.426 28.3239 133.8 28.7064 134.142 29.1133C134.492 29.512 134.781 29.9393 135.009 30.395C135.245 30.8507 135.363 31.339 135.363 31.8599C135.363 32.4458 135.261 32.9666 135.058 33.4224C134.862 33.8781 134.577 34.2646 134.203 34.582C133.837 34.8994 133.389 35.1436 132.86 35.3145C132.34 35.4772 131.758 35.5586 131.115 35.5586C130.553 35.5586 130.045 35.4813 129.589 35.3267C129.133 35.1639 128.726 34.9686 128.368 34.7407C128.018 34.5047 127.717 34.2565 127.465 33.9961C127.213 33.7357 127.017 33.4997 126.879 33.2881L127.306 32.9829C127.412 33.105 127.546 33.2393 127.709 33.3857C127.872 33.5241 128.051 33.6543 128.246 33.7764C128.45 33.8984 128.665 34.0002 128.893 34.0815C129.121 34.1548 129.353 34.1914 129.589 34.1914C130.175 34.1914 130.655 34.0531 131.029 33.7764C131.404 33.4915 131.591 33.0724 131.591 32.519C131.591 32.2098 131.489 31.8924 131.286 31.5669C131.082 31.2332 130.826 30.8914 130.517 30.5415C130.207 30.1916 129.874 29.8294 129.516 29.4551C129.158 29.0807 128.824 28.6942 128.515 28.2954C128.205 27.8966 127.949 27.4857 127.746 27.0625C127.542 26.6393 127.44 26.1999 127.44 25.7441C127.44 25.2314 127.542 24.7839 127.746 24.4014C127.957 24.0189 128.234 23.7015 128.576 23.4492C128.926 23.1969 129.32 23.0098 129.76 22.8877C130.207 22.7575 130.667 22.6924 131.139 22.6924C131.684 22.6924 132.181 22.7412 132.628 22.8389C133.076 22.9365 133.458 23.0871 133.776 23.2905C134.101 23.4858 134.35 23.734 134.521 24.0352C134.7 24.3363 134.789 24.6862 134.789 25.085C134.789 25.3942 134.687 25.6628 134.484 25.8906C134.28 26.1185 133.996 26.2324 133.629 26.2324C133.279 26.2324 133.011 26.1592 132.824 26.0127C132.645 25.8581 132.555 25.6506 132.555 25.3901C132.555 25.2192 132.596 25.085 132.677 24.9873C132.767 24.8896 132.864 24.8123 132.97 24.7554C133.076 24.6903 133.17 24.6374 133.251 24.5967C133.34 24.5479 133.385 24.4868 133.385 24.4136C133.385 24.1857 133.263 24.0067 133.019 23.8765C132.775 23.7381 132.462 23.6689 132.079 23.6689ZM141.344 23.7422V32.7632C141.344 33.1945 141.426 33.4956 141.588 33.6665C141.751 33.8293 141.975 33.9106 142.26 33.9106C142.479 33.9106 142.675 33.8496 142.846 33.7275C143.017 33.6055 143.163 33.4671 143.285 33.3125C143.432 33.1416 143.558 32.9422 143.664 32.7144L144.042 32.8853C143.92 33.1457 143.773 33.4305 143.603 33.7397C143.44 34.049 143.22 34.3379 142.943 34.6064C142.667 34.8669 142.317 35.0866 141.894 35.2656C141.479 35.4447 140.954 35.5342 140.319 35.5342C139.961 35.5342 139.615 35.4813 139.281 35.3755C138.956 35.2697 138.663 35.1029 138.402 34.875C138.15 34.6471 137.947 34.3623 137.792 34.0205C137.637 33.6787 137.56 33.2677 137.56 32.7876V23.7422H136.193V22.8633C136.421 22.8633 136.738 22.8063 137.145 22.6924C137.552 22.5703 137.967 22.3709 138.39 22.0942C138.821 21.8175 139.22 21.4473 139.586 20.9834C139.953 20.5195 140.213 19.9458 140.368 19.2622H141.344V22.8633H143.334C143.985 22.8633 144.311 22.7534 144.311 22.5337C144.311 22.4523 144.27 22.3994 144.188 22.375C144.107 22.3424 144.014 22.3058 143.908 22.2651C143.81 22.2163 143.721 22.1512 143.639 22.0698C143.558 21.9884 143.517 21.8542 143.517 21.667C143.517 21.4391 143.586 21.2601 143.725 21.1299C143.871 20.9997 144.058 20.9346 144.286 20.9346C144.433 20.9346 144.559 20.9671 144.665 21.0322C144.778 21.0892 144.872 21.1706 144.945 21.2764C145.019 21.374 145.071 21.488 145.104 21.6182C145.145 21.7484 145.165 21.8786 145.165 22.0088C145.165 22.5378 145.01 22.9609 144.701 23.2783C144.4 23.5876 143.912 23.7422 143.236 23.7422H141.344ZM151.305 29.04C151.305 28.8366 151.24 28.682 151.11 28.5762C150.98 28.4704 150.813 28.4175 150.609 28.4175C150.325 28.4175 150.052 28.4826 149.792 28.6128C149.539 28.743 149.315 28.9342 149.12 29.1865C148.925 29.4388 148.77 29.7521 148.656 30.1265C148.542 30.4927 148.485 30.9199 148.485 31.4082C148.485 31.8802 148.518 32.2708 148.583 32.5801C148.656 32.8893 148.75 33.1375 148.864 33.3247C148.986 33.5037 149.124 33.6299 149.279 33.7031C149.433 33.7764 149.596 33.813 149.767 33.813C149.979 33.813 150.178 33.7601 150.365 33.6543C150.552 33.5404 150.715 33.3979 150.854 33.2271C150.992 33.0562 151.102 32.8649 151.183 32.6533C151.264 32.4417 151.305 32.2301 151.305 32.0186V29.04ZM149.364 23.6934C149.088 23.6934 148.831 23.7259 148.595 23.791C148.359 23.8561 148.156 23.9375 147.985 24.0352C147.814 24.1328 147.68 24.2427 147.582 24.3647C147.484 24.4787 147.436 24.5885 147.436 24.6943C147.436 24.8164 147.497 24.9059 147.619 24.9629C147.749 25.0117 147.891 25.0728 148.046 25.146C148.201 25.2111 148.339 25.3088 148.461 25.439C148.591 25.561 148.656 25.7523 148.656 26.0127C148.656 26.1836 148.62 26.3423 148.546 26.4888C148.481 26.6271 148.388 26.7533 148.266 26.8672C148.152 26.973 148.013 27.0584 147.851 27.1235C147.696 27.1805 147.533 27.209 147.362 27.209C146.907 27.209 146.536 27.0544 146.251 26.7451C145.975 26.4359 145.836 26.0249 145.836 25.5122C145.836 25.0158 145.967 24.5926 146.227 24.2427C146.487 23.8846 146.825 23.5916 147.24 23.3638C147.663 23.1359 148.139 22.9691 148.668 22.8633C149.197 22.7493 149.726 22.6924 150.255 22.6924C150.89 22.6924 151.496 22.7616 152.074 22.8999C152.652 23.0382 153.161 23.258 153.6 23.5591C154.048 23.8602 154.402 24.2427 154.662 24.7065C154.931 25.1704 155.065 25.7319 155.065 26.3911V33.2881C155.065 33.3613 155.069 33.4427 155.077 33.5322C155.085 33.6217 155.106 33.7031 155.138 33.7764C155.171 33.8496 155.22 33.9106 155.285 33.9595C155.35 34.0083 155.443 34.0327 155.565 34.0327C155.712 34.0327 155.846 33.9798 155.968 33.874C156.098 33.7601 156.212 33.6462 156.31 33.5322L156.615 33.7886C156.493 33.9595 156.347 34.1466 156.176 34.3501C156.005 34.5535 155.797 34.7448 155.553 34.9238C155.309 35.1029 155.024 35.2534 154.699 35.3755C154.373 35.4976 154.003 35.5586 153.588 35.5586C153.075 35.5586 152.619 35.408 152.221 35.1069C151.822 34.7977 151.562 34.3257 151.439 33.6909C151.179 34.0409 150.906 34.3338 150.622 34.5698C150.345 34.8058 150.06 34.9971 149.767 35.1436C149.474 35.29 149.177 35.3958 148.876 35.4609C148.583 35.526 148.286 35.5586 147.985 35.5586C147.594 35.5586 147.216 35.4976 146.85 35.3755C146.483 35.2534 146.154 35.0622 145.861 34.8018C145.576 34.5332 145.344 34.1873 145.165 33.7642C144.994 33.341 144.909 32.8242 144.909 32.2139C144.909 31.4733 145.055 30.867 145.348 30.395C145.641 29.923 146.024 29.5283 146.496 29.2109C146.976 28.8854 147.517 28.6087 148.119 28.3809C148.729 28.153 149.352 27.9129 149.987 27.6606C150.459 27.4735 150.801 27.1968 151.012 26.8306C151.232 26.4562 151.342 26.0737 151.342 25.6831C151.342 25.0809 151.163 24.6007 150.805 24.2427C150.455 23.8765 149.975 23.6934 149.364 23.6934Z" fill="#FA503F"/>
<defs>
<linearGradient id="paint0_linear_1807_2048" x1="0" y1="26.8633" x2="43" y2="26.8633" gradientUnits="userSpaceOnUse">
<stop stop-color="#D74958"/>
<stop offset="1" stop-color="#8E236A"/>
</linearGradient>
<clipPath id="clip0_1807_2048">
<rect width="43" height="53" fill="white" transform="translate(0 0.363281)"/>
</clipPath>
</defs>
</svg>
