<svg width="45" height="68" viewBox="0 0 45 68" fill="none" xmlns="http://www.w3.org/2000/svg">
<line x1="22.9463" y1="0.300781" x2="22.9463" y2="67.6406" stroke="black" stroke-opacity="0.2"/>
<rect y="10.1211" width="44.8932" height="46.2961" rx="5" fill="white"/>
<rect x="0.5" y="10.6211" width="43.8932" height="45.2961" rx="4.5" stroke="black" stroke-opacity="0.2"/>
<path d="M31.425 27.6575C31.6482 27.6575 31.8623 27.7314 32.0202 27.863C32.1781 27.9945 32.2668 28.173 32.2668 28.359C32.2668 28.5451 32.1781 28.7235 32.0202 28.8551C31.8623 28.9866 31.6482 29.0605 31.425 29.0605H21.043V33.9712C21.0429 34.1099 20.9934 34.2454 20.9009 34.3606C20.8084 34.4759 20.677 34.5657 20.5233 34.6188C20.3696 34.6718 20.2004 34.6857 20.0372 34.6587C19.874 34.6317 19.7241 34.5649 19.6064 34.467L12.8722 28.8548C12.7145 28.7232 12.626 28.5449 12.626 28.359C12.626 28.1731 12.7145 27.9948 12.8722 27.8633L19.6064 22.2511C19.7241 22.1531 19.874 22.0864 20.0372 22.0593C20.2004 22.0323 20.3696 22.0462 20.5233 22.0993C20.677 22.1523 20.8084 22.2421 20.9009 22.3574C20.9934 22.4726 21.0429 22.6081 21.043 22.7468V27.6575H31.425Z" fill="#FA503F"/>
<path d="M13.4676 37.4778C13.2443 37.4778 13.0302 37.5517 12.8724 37.6833C12.7145 37.8148 12.6258 37.9933 12.6258 38.1793C12.6258 38.3654 12.7145 38.5438 12.8724 38.6754C13.0302 38.8069 13.2443 38.8808 13.4676 38.8808H23.8495V43.7915C23.8497 43.9302 23.8991 44.0657 23.9916 44.1809C24.0842 44.2962 24.2156 44.386 24.3693 44.4391C24.523 44.4921 24.6922 44.506 24.8553 44.479C25.0185 44.452 25.1685 44.3853 25.2862 44.2873L32.0204 38.6751C32.1781 38.5435 32.2666 38.3652 32.2666 38.1793C32.2666 37.9934 32.1781 37.8151 32.0204 37.6836L25.2862 32.0714C25.1685 31.9734 25.0185 31.9067 24.8553 31.8797C24.6922 31.8526 24.523 31.8665 24.3693 31.9196C24.2156 31.9726 24.0842 32.0624 23.9916 32.1777C23.8991 32.2929 23.8497 32.4285 23.8495 32.5671V37.4778H13.4676Z" fill="#FA503F"/>
</svg>
