<svg width="47" height="47" viewBox="0 0 47 47" fill="none" xmlns="http://www.w3.org/2000/svg">
<circle cx="23.0556" cy="23.0556" r="23.0556" transform="matrix(-1 0 0 1 46.8887 0)" fill="white"/>
<circle cx="23.0556" cy="23.0556" r="22.4792" transform="matrix(-1 0 0 1 46.8887 0)" stroke="#FA503F" stroke-opacity="0.4" stroke-width="1.15278"/>
<path d="M33.0547 24.2084C33.6913 24.2084 34.2075 23.6923 34.2075 23.0557C34.2075 22.419 33.6913 21.9029 33.0547 21.9029L33.0547 24.2084ZM13.7951 22.2405C13.3449 22.6907 13.3449 23.4206 13.7951 23.8708L21.1313 31.207C21.5815 31.6572 22.3114 31.6572 22.7616 31.207C23.2118 30.7568 23.2118 30.0269 22.7616 29.5768L16.2405 23.0557L22.7616 16.5346C23.2118 16.0844 23.2118 15.3545 22.7616 14.9043C22.3114 14.4541 21.5815 14.4541 21.1313 14.9043L13.7951 22.2405ZM33.0547 21.9029L14.6102 21.9029L14.6102 24.2084L33.0547 24.2084L33.0547 21.9029Z" fill="#FA503F" fill-opacity="0.4"/>
</svg>
