<svg width="111" height="42" viewBox="0 0 111 42" fill="none" xmlns="http://www.w3.org/2000/svg">
<path d="M9.408 13.192C8.66133 13.192 7.968 13.0533 7.328 12.776C6.688 12.488 6.144 12.0987 5.696 11.608C5.248 11.1173 4.91733 10.552 4.704 9.912L6.304 9.24C6.592 9.976 7.01333 10.5413 7.568 10.936C8.12267 11.3307 8.76267 11.528 9.488 11.528C9.91467 11.528 10.288 11.464 10.608 11.336C10.928 11.1973 11.1733 11.0053 11.344 10.76C11.5253 10.5147 11.616 10.232 11.616 9.912C11.616 9.47467 11.4933 9.128 11.248 8.872C11.0027 8.616 10.64 8.41333 10.16 8.264L7.92 7.56C7.024 7.28267 6.34133 6.86133 5.872 6.296C5.40267 5.72 5.168 5.048 5.168 4.28C5.168 3.608 5.33333 3.02133 5.664 2.52C5.99467 2.008 6.448 1.608 7.024 1.32C7.61067 1.032 8.27733 0.888 9.024 0.888C9.73867 0.888 10.3893 1.016 10.976 1.272C11.5627 1.51733 12.064 1.85867 12.48 2.296C12.9067 2.73333 13.216 3.24 13.408 3.816L11.84 4.504C11.6053 3.87467 11.2373 3.38933 10.736 3.048C10.2453 2.70667 9.67467 2.536 9.024 2.536C8.62933 2.536 8.28267 2.60533 7.984 2.744C7.68533 2.872 7.45067 3.064 7.28 3.32C7.12 3.56533 7.04 3.85333 7.04 4.184C7.04 4.568 7.16267 4.90933 7.408 5.208C7.65333 5.50667 8.02667 5.73067 8.528 5.88L10.608 6.536C11.5573 6.824 12.272 7.24 12.752 7.784C13.232 8.31733 13.472 8.984 13.472 9.784C13.472 10.4453 13.296 11.032 12.944 11.544C12.6027 12.056 12.128 12.4613 11.52 12.76C10.912 13.048 10.208 13.192 9.408 13.192ZM15.4154 16.2V4.344H17.1434V6.136L16.9354 5.72C17.2554 5.22933 17.682 4.84533 18.2154 4.568C18.7487 4.29067 19.3567 4.152 20.0394 4.152C20.8607 4.152 21.5967 4.34933 22.2474 4.744C22.9087 5.13867 23.426 5.67733 23.7994 6.36C24.1834 7.04267 24.3754 7.81067 24.3754 8.664C24.3754 9.51733 24.1834 10.2853 23.7994 10.968C23.426 11.6507 22.914 12.1947 22.2634 12.6C21.6127 12.9947 20.8714 13.192 20.0394 13.192C19.3674 13.192 18.754 13.0533 18.1994 12.776C17.6554 12.4987 17.234 12.0987 16.9354 11.576L17.2234 11.24V16.2H15.4154ZM19.8634 11.512C20.3754 11.512 20.8287 11.3893 21.2234 11.144C21.618 10.8987 21.9274 10.5627 22.1514 10.136C22.386 9.69867 22.5034 9.208 22.5034 8.664C22.5034 8.12 22.386 7.63467 22.1514 7.208C21.9274 6.78133 21.618 6.44533 21.2234 6.2C20.8287 5.95467 20.3754 5.832 19.8634 5.832C19.362 5.832 18.9087 5.95467 18.5034 6.2C18.1087 6.44533 17.794 6.78133 17.5594 7.208C17.3354 7.63467 17.2234 8.12 17.2234 8.664C17.2234 9.208 17.3354 9.69867 17.5594 10.136C17.794 10.5627 18.1087 10.8987 18.5034 11.144C18.9087 11.3893 19.362 11.512 19.8634 11.512ZM30.1981 13.192C29.3341 13.192 28.5661 12.9947 27.8941 12.6C27.2328 12.1947 26.7155 11.6507 26.3421 10.968C25.9688 10.2747 25.7821 9.50133 25.7821 8.648C25.7821 7.77333 25.9688 7 26.3421 6.328C26.7261 5.656 27.2381 5.128 27.8781 4.744C28.5181 4.34933 29.2435 4.152 30.0541 4.152C30.7048 4.152 31.2861 4.264 31.7981 4.488C32.3101 4.712 32.7421 5.02133 33.0941 5.416C33.4461 5.8 33.7128 6.24267 33.8941 6.744C34.0861 7.24533 34.1821 7.77867 34.1821 8.344C34.1821 8.48267 34.1768 8.62667 34.1661 8.776C34.1555 8.92533 34.1341 9.064 34.1021 9.192H27.2061V7.752H33.0781L32.2141 8.408C32.3208 7.88533 32.2835 7.42133 32.1021 7.016C31.9315 6.6 31.6648 6.27467 31.3021 6.04C30.9501 5.79467 30.5341 5.672 30.0541 5.672C29.5741 5.672 29.1475 5.79467 28.7741 6.04C28.4008 6.27467 28.1128 6.616 27.9101 7.064C27.7075 7.50133 27.6275 8.03467 27.6701 8.664C27.6168 9.25067 27.6968 9.76267 27.9101 10.2C28.1341 10.6373 28.4435 10.9787 28.8381 11.224C29.2435 11.4693 29.7021 11.592 30.2141 11.592C30.7368 11.592 31.1795 11.4747 31.5421 11.24C31.9155 11.0053 32.2088 10.7013 32.4221 10.328L33.8941 11.048C33.7235 11.4533 33.4568 11.8213 33.0941 12.152C32.7421 12.472 32.3155 12.728 31.8141 12.92C31.3235 13.1013 30.7848 13.192 30.1981 13.192ZM40.0586 13.192C39.1946 13.192 38.4266 12.9947 37.7546 12.6C37.0933 12.1947 36.5653 11.6507 36.1706 10.968C35.7866 10.2853 35.5946 9.512 35.5946 8.648C35.5946 7.79467 35.7866 7.02667 36.1706 6.344C36.5546 5.66133 37.0826 5.128 37.7546 4.744C38.4266 4.34933 39.1946 4.152 40.0586 4.152C40.6453 4.152 41.1946 4.25867 41.7066 4.472C42.2186 4.67467 42.6613 4.95733 43.0346 5.32C43.4186 5.68267 43.7013 6.104 43.8826 6.584L42.2986 7.32C42.1173 6.872 41.824 6.51467 41.4186 6.248C41.024 5.97067 40.5706 5.832 40.0586 5.832C39.568 5.832 39.1253 5.95467 38.7306 6.2C38.3466 6.43467 38.0426 6.77067 37.8186 7.208C37.5946 7.63467 37.4826 8.12 37.4826 8.664C37.4826 9.208 37.5946 9.69867 37.8186 10.136C38.0426 10.5627 38.3466 10.8987 38.7306 11.144C39.1253 11.3893 39.568 11.512 40.0586 11.512C40.5813 11.512 41.0346 11.3787 41.4186 11.112C41.8133 10.8347 42.1066 10.4667 42.2986 10.008L43.8826 10.76C43.712 11.2187 43.4346 11.6347 43.0506 12.008C42.6773 12.3707 42.2346 12.6587 41.7226 12.872C41.2106 13.0853 40.656 13.192 40.0586 13.192ZM45.6497 13V4.344H47.4578V13H45.6497ZM45.6497 3.16V1.08H47.4578V3.16H45.6497ZM52.1636 13.192C51.577 13.192 51.0596 13.0907 50.6116 12.888C50.1743 12.6747 49.833 12.3867 49.5876 12.024C49.3423 11.6507 49.2196 11.2133 49.2196 10.712C49.2196 10.2427 49.321 9.82133 49.5236 9.448C49.737 9.07467 50.0623 8.76 50.4996 8.504C50.937 8.248 51.4863 8.06667 52.1476 7.96L55.1556 7.464V8.888L52.4996 9.352C52.0196 9.43733 51.6676 9.592 51.4436 9.816C51.2196 10.0293 51.1076 10.3067 51.1076 10.648C51.1076 10.9787 51.2303 11.2507 51.4756 11.464C51.7316 11.6667 52.057 11.768 52.4516 11.768C52.9423 11.768 53.369 11.6613 53.7316 11.448C54.105 11.2347 54.393 10.952 54.5956 10.6C54.7983 10.2373 54.8996 9.83733 54.8996 9.4V7.176C54.8996 6.74933 54.7396 6.40267 54.4196 6.136C54.1103 5.85867 53.6943 5.72 53.1716 5.72C52.6916 5.72 52.2703 5.848 51.9076 6.104C51.5556 6.34933 51.2943 6.66933 51.1236 7.064L49.6196 6.312C49.7796 5.88533 50.041 5.512 50.4036 5.192C50.7663 4.86133 51.1876 4.60533 51.6676 4.424C52.1583 4.24267 52.6756 4.152 53.2196 4.152C53.9023 4.152 54.505 4.28 55.0276 4.536C55.561 4.792 55.9716 5.14933 56.2596 5.608C56.5583 6.056 56.7076 6.57867 56.7076 7.176V13H54.9796V11.432L55.3476 11.48C55.145 11.832 54.8836 12.136 54.5636 12.392C54.2543 12.648 53.897 12.8453 53.4916 12.984C53.097 13.1227 52.6543 13.192 52.1636 13.192ZM58.8216 13V0.888H60.6296V13H58.8216ZM65.7164 13V1.08H73.4764V2.76H67.6044V6.344H72.8364V8.024H67.6044V13H65.7164ZM77.0699 13.192C76.4832 13.192 75.9659 13.0907 75.5179 12.888C75.0805 12.6747 74.7392 12.3867 74.4939 12.024C74.2485 11.6507 74.1259 11.2133 74.1259 10.712C74.1259 10.2427 74.2272 9.82133 74.4299 9.448C74.6432 9.07467 74.9685 8.76 75.4059 8.504C75.8432 8.248 76.3925 8.06667 77.0539 7.96L80.0619 7.464V8.888L77.4059 9.352C76.9259 9.43733 76.5739 9.592 76.3499 9.816C76.1259 10.0293 76.0139 10.3067 76.0139 10.648C76.0139 10.9787 76.1365 11.2507 76.3819 11.464C76.6379 11.6667 76.9632 11.768 77.3579 11.768C77.8485 11.768 78.2752 11.6613 78.6379 11.448C79.0112 11.2347 79.2992 10.952 79.5019 10.6C79.7045 10.2373 79.8059 9.83733 79.8059 9.4V7.176C79.8059 6.74933 79.6459 6.40267 79.3259 6.136C79.0165 5.85867 78.6005 5.72 78.0779 5.72C77.5979 5.72 77.1765 5.848 76.8139 6.104C76.4619 6.34933 76.2005 6.66933 76.0299 7.064L74.5259 6.312C74.6859 5.88533 74.9472 5.512 75.3099 5.192C75.6725 4.86133 76.0939 4.60533 76.5739 4.424C77.0645 4.24267 77.5819 4.152 78.1259 4.152C78.8085 4.152 79.4112 4.28 79.9339 4.536C80.4672 4.792 80.8779 5.14933 81.1659 5.608C81.4645 6.056 81.6139 6.57867 81.6139 7.176V13H79.8859V11.432L80.2539 11.48C80.0512 11.832 79.7899 12.136 79.4699 12.392C79.1605 12.648 78.8032 12.8453 78.3979 12.984C78.0032 13.1227 77.5605 13.192 77.0699 13.192ZM83.7279 13V4.344H85.4559V6.088L85.2959 5.832C85.4879 5.26667 85.7972 4.86133 86.2239 4.616C86.6505 4.36 87.1625 4.232 87.7599 4.232H88.2879V5.88H87.5359C86.9385 5.88 86.4532 6.06667 86.0799 6.44C85.7172 6.80267 85.5359 7.32533 85.5359 8.008V13H83.7279ZM93.5888 13.192C92.7248 13.192 91.9568 12.9947 91.2848 12.6C90.6234 12.1947 90.1061 11.6507 89.7328 10.968C89.3594 10.2747 89.1728 9.50133 89.1728 8.648C89.1728 7.77333 89.3594 7 89.7328 6.328C90.1168 5.656 90.6288 5.128 91.2688 4.744C91.9088 4.34933 92.6341 4.152 93.4448 4.152C94.0954 4.152 94.6768 4.264 95.1888 4.488C95.7008 4.712 96.1328 5.02133 96.4848 5.416C96.8368 5.8 97.1034 6.24267 97.2847 6.744C97.4768 7.24533 97.5728 7.77867 97.5728 8.344C97.5728 8.48267 97.5674 8.62667 97.5568 8.776C97.5461 8.92533 97.5248 9.064 97.4928 9.192H90.5968V7.752H96.4688L95.6048 8.408C95.7114 7.88533 95.6741 7.42133 95.4928 7.016C95.3221 6.6 95.0554 6.27467 94.6928 6.04C94.3408 5.79467 93.9248 5.672 93.4448 5.672C92.9648 5.672 92.5381 5.79467 92.1648 6.04C91.7914 6.27467 91.5034 6.616 91.3008 7.064C91.0981 7.50133 91.0181 8.03467 91.0608 8.664C91.0074 9.25067 91.0874 9.76267 91.3008 10.2C91.5248 10.6373 91.8341 10.9787 92.2288 11.224C92.6341 11.4693 93.0928 11.592 93.6048 11.592C94.1274 11.592 94.5701 11.4747 94.9328 11.24C95.3061 11.0053 95.5994 10.7013 95.8128 10.328L97.2847 11.048C97.1141 11.4533 96.8474 11.8213 96.4848 12.152C96.1328 12.472 95.7061 12.728 95.2048 12.92C94.7141 13.1013 94.1754 13.192 93.5888 13.192ZM102.537 13.192C101.652 13.192 100.873 12.9733 100.201 12.536C99.5399 12.0987 99.0759 11.512 98.8092 10.776L100.201 10.12C100.436 10.6107 100.756 11 101.161 11.288C101.577 11.576 102.036 11.72 102.537 11.72C102.964 11.72 103.311 11.624 103.577 11.432C103.844 11.24 103.977 10.9787 103.977 10.648C103.977 10.4347 103.919 10.264 103.801 10.136C103.684 9.99733 103.535 9.88533 103.353 9.8C103.183 9.71467 103.007 9.65067 102.825 9.608L101.465 9.224C100.719 9.01067 100.159 8.69067 99.7853 8.264C99.4226 7.82667 99.2413 7.32 99.2413 6.744C99.2413 6.22133 99.3746 5.768 99.6413 5.384C99.9079 4.98933 100.276 4.68533 100.745 4.472C101.215 4.25867 101.743 4.152 102.329 4.152C103.119 4.152 103.823 4.34933 104.441 4.744C105.06 5.128 105.497 5.66667 105.753 6.36L104.361 7.016C104.191 6.6 103.919 6.26933 103.545 6.024C103.183 5.77867 102.772 5.656 102.313 5.656C101.919 5.656 101.604 5.752 101.369 5.944C101.135 6.12533 101.017 6.36533 101.017 6.664C101.017 6.86667 101.071 7.03733 101.177 7.176C101.284 7.304 101.423 7.41067 101.593 7.496C101.764 7.57067 101.94 7.63467 102.121 7.688L103.529 8.104C104.244 8.30667 104.793 8.62667 105.177 9.064C105.561 9.49067 105.753 10.0027 105.753 10.6C105.753 11.112 105.615 11.5653 105.337 11.96C105.071 12.344 104.697 12.648 104.217 12.872C103.737 13.0853 103.177 13.192 102.537 13.192Z" fill="#222222"/>
<rect y="20" width="111" height="22" rx="11" fill="url(#paint0_linear_1784_5208)"/>
<path d="M19.6191 35H17.7324L16.9824 33.0488H13.5488L12.8398 35H11L14.3457 26.4102H16.1797L19.6191 35ZM16.4258 31.6016L15.2422 28.4141L14.082 31.6016H16.4258ZM20.5391 26.4102H23.709C24.4277 26.4102 24.9727 26.4648 25.3438 26.5742C26.3594 26.8711 27.0645 27.5977 27.459 28.7539C27.6465 29.3047 27.7402 29.9824 27.7402 30.7871C27.7402 32.252 27.3457 33.3672 26.5566 34.1328C26.252 34.4258 25.8457 34.6543 25.3379 34.8184C24.959 34.9395 24.4473 35 23.8027 35H20.5391V26.4102ZM22.2734 27.8633V33.5527H23.5684C24.0488 33.5527 24.3984 33.5254 24.6172 33.4707C25.1914 33.3262 25.5762 32.9297 25.7715 32.2812C25.8887 31.8984 25.9473 31.375 25.9473 30.7109C25.9473 29.5586 25.7246 28.7715 25.2793 28.3496C25.0684 28.1504 24.8008 28.0156 24.4766 27.9453C24.2305 27.8906 23.7559 27.8633 23.0527 27.8633H22.2734ZM29.2109 26.4102H32.3809C33.0996 26.4102 33.6445 26.4648 34.0156 26.5742C35.0312 26.8711 35.7363 27.5977 36.1309 28.7539C36.3184 29.3047 36.4121 29.9824 36.4121 30.7871C36.4121 32.252 36.0176 33.3672 35.2285 34.1328C34.9238 34.4258 34.5176 34.6543 34.0098 34.8184C33.6309 34.9395 33.1191 35 32.4746 35H29.2109V26.4102ZM30.9453 27.8633V33.5527H32.2402C32.7207 33.5527 33.0703 33.5254 33.2891 33.4707C33.8633 33.3262 34.248 32.9297 34.4434 32.2812C34.5605 31.8984 34.6191 31.375 34.6191 30.7109C34.6191 29.5586 34.3965 28.7715 33.9512 28.3496C33.7402 28.1504 33.4727 28.0156 33.1484 27.9453C32.9023 27.8906 32.4277 27.8633 31.7246 27.8633H30.9453ZM37.8887 35V26.4102H44.2578V27.8633H39.623V29.7676H43.9355V31.2148H39.623V33.5527H44.4219V35H37.8887ZM45.8867 26.4102H49.0566C49.7754 26.4102 50.3203 26.4648 50.6914 26.5742C51.707 26.8711 52.4121 27.5977 52.8066 28.7539C52.9941 29.3047 53.0879 29.9824 53.0879 30.7871C53.0879 32.252 52.6934 33.3672 51.9043 34.1328C51.5996 34.4258 51.1934 34.6543 50.6855 34.8184C50.3066 34.9395 49.7949 35 49.1504 35H45.8867V26.4102ZM47.6211 27.8633V33.5527H48.916C49.3965 33.5527 49.7461 33.5254 49.9648 33.4707C50.5391 33.3262 50.9238 32.9297 51.1191 32.2812C51.2363 31.8984 51.2949 31.375 51.2949 30.7109C51.2949 29.5586 51.0723 28.7715 50.627 28.3496C50.416 28.1504 50.1484 28.0156 49.8242 27.9453C49.5781 27.8906 49.1035 27.8633 48.4004 27.8633H47.6211ZM57.9043 35V26.4102H60.6875C61.7383 26.4102 62.4258 26.4531 62.75 26.5391C63.3125 26.6875 63.748 27.002 64.0566 27.4824C64.3418 27.9238 64.4844 28.4473 64.4844 29.0527C64.4844 30.0332 64.1465 30.7578 63.4707 31.2266C63.166 31.4375 62.8652 31.5742 62.5684 31.6367C62.1699 31.7188 61.5703 31.7598 60.7695 31.7598H59.6387V35H57.9043ZM59.6387 27.8633V30.3008H60.5879C61.0957 30.3008 61.4434 30.2832 61.6309 30.248C62.0293 30.1738 62.3203 30.0059 62.5039 29.7441C62.6328 29.5527 62.6973 29.3301 62.6973 29.0762C62.6973 28.7754 62.6094 28.5215 62.4336 28.3145C62.2578 28.1074 62.0215 27.9766 61.7246 27.9219C61.5137 27.8828 61.0977 27.8633 60.4766 27.8633H59.6387ZM65.9082 35V26.4102H72.2773V27.8633H67.6426V29.7676H71.9551V31.2148H67.6426V33.5527H72.4414V35H65.9082ZM73.918 35V26.4102H77.5684C78.3262 26.4102 78.8828 26.4551 79.2383 26.5449C79.832 26.6934 80.2754 27 80.5684 27.4648C80.8184 27.8594 80.9434 28.3105 80.9434 28.8184C80.9434 30.1934 80.1875 30.9902 78.6758 31.209C79.1055 31.459 79.4727 31.7656 79.7773 32.1289C79.957 32.3477 80.2285 32.7461 80.5918 33.3242L81.6406 35H79.5664L78.3125 33.1309C77.9375 32.5723 77.7324 32.2695 77.6973 32.2227C77.4004 31.8359 77.127 31.5977 76.877 31.5078C76.6934 31.4453 76.4023 31.4141 76.0039 31.4141H75.6523V35H73.918ZM75.6523 30.043H76.9355C77.5723 30.043 77.9375 30.0371 78.0312 30.0254C78.4961 29.9746 78.8125 29.8242 78.9805 29.5742C79.0977 29.4023 79.1562 29.1875 79.1562 28.9297C79.1562 28.332 78.8613 27.9863 78.2715 27.8926C78.1465 27.873 77.7246 27.8633 77.0059 27.8633H75.6523V30.043ZM82.6074 35V26.4102H84.3418V30.2246L87.8457 26.4102H90.1777L86.9434 29.7559L90.3535 35H88.1094L85.748 30.9688L84.3418 32.4043V35H82.6074ZM90.8164 32.2051L92.5039 32.041C92.6992 33.1387 93.3242 33.6875 94.3789 33.6875C94.8164 33.6875 95.1895 33.6016 95.498 33.4297C95.877 33.2148 96.0664 32.9062 96.0664 32.5039C96.0664 32.0977 95.7988 31.8008 95.2637 31.6133C95.0684 31.543 94.6055 31.418 93.875 31.2383C92.9453 31.0078 92.293 30.7246 91.918 30.3887C91.3906 29.916 91.127 29.3398 91.127 28.6602C91.127 28.1914 91.2578 27.7715 91.5195 27.4004C91.7812 27.0293 92.1328 26.75 92.5742 26.5625C93.0391 26.3633 93.6016 26.2637 94.2617 26.2637C95.207 26.2637 95.9629 26.457 96.5293 26.8438C97.1816 27.293 97.5234 27.9668 97.5547 28.8652L95.8203 28.9414C95.7422 28.4883 95.5742 28.1641 95.3164 27.9688C95.0742 27.7891 94.7168 27.6992 94.2441 27.6992C93.7402 27.6992 93.3457 27.8027 93.0605 28.0098C92.877 28.1426 92.7852 28.3203 92.7852 28.543C92.7852 28.7461 92.8711 28.9199 93.043 29.0645C93.25 29.2402 93.7852 29.4395 94.6484 29.6621C95.6133 29.9121 96.2344 30.1094 96.5117 30.2539C97.3711 30.7109 97.8008 31.459 97.8008 32.498C97.8008 33.0176 97.6582 33.4883 97.373 33.9102C97.0918 34.3281 96.7109 34.6367 96.2305 34.8359C95.7305 35.0469 95.1074 35.1523 94.3613 35.1523C92.2285 35.1523 91.0469 34.1699 90.8164 32.2051Z" fill="white"/>
<defs>
<linearGradient id="paint0_linear_1784_5208" x1="0" y1="31" x2="111" y2="31" gradientUnits="userSpaceOnUse">
<stop stop-color="#6F22BE"/>
<stop offset="1" stop-color="#0969C0"/>
</linearGradient>
</defs>
</svg>
