<svg width="12" height="16" viewBox="0 0 12 16" fill="none" xmlns="http://www.w3.org/2000/svg">
<g clip-path="url(#clip0_2832_2061)">
<path d="M12 6.62541C12 8.00326 11.6193 9.28269 10.9676 10.3428C10.843 10.5455 10.7082 10.74 10.5644 10.9256L10.5638 10.9261C10.3689 11.1781 10.1574 11.4141 9.93083 11.6317L8.22836 13.5235L6.00027 16C5.49613 15.515 5.02474 15.0135 4.61295 14.4757C4.3896 14.1846 4.18397 13.8834 3.99928 13.5686C3.98855 13.5502 3.97835 13.5318 3.96814 13.5141C3.95633 13.4927 3.94452 13.4714 3.93217 13.4506C3.92036 13.4293 3.90855 13.4085 3.89674 13.3878C3.88654 13.3688 3.87634 13.3504 3.86614 13.3315C3.84949 13.3 3.83285 13.268 3.81674 13.2366C3.79688 13.1992 3.77809 13.1619 3.75929 13.1245C3.6852 12.9781 3.61702 12.8293 3.55313 12.6769C3.4726 12.4006 3.42213 12.141 3.39689 11.8931C3.39689 11.8902 3.39636 11.8866 3.39636 11.8831C3.39582 11.8795 3.39528 11.8759 3.39528 11.8718C3.3926 11.8457 3.38992 11.8202 3.38777 11.7947C3.38723 11.7906 3.38723 11.7864 3.38723 11.7823C3.38669 11.7781 3.38616 11.774 3.38616 11.7698C3.38455 11.7437 3.38294 11.717 3.38186 11.691C3.38186 11.6797 3.38133 11.669 3.38079 11.6578C3.38025 11.656 3.38025 11.6536 3.38079 11.6518C3.38025 11.6459 3.38025 11.64 3.37971 11.634C3.37971 11.6269 3.37918 11.6198 3.37918 11.6127C3.37864 11.5961 3.37864 11.5789 3.37864 11.5623C3.3781 11.4746 3.38186 11.3862 3.38884 11.2973C3.40334 11.1093 3.43448 10.9285 3.48065 10.7524V10.7518C3.53165 10.5562 3.60199 10.3677 3.68843 10.1827C3.69057 10.1768 3.69326 10.1708 3.69648 10.1649C3.69916 10.159 3.70185 10.1536 3.70453 10.1483C3.71527 10.1252 3.72654 10.102 3.73836 10.0789C4.12438 9.31411 4.9034 8.48883 5.71679 7.67777L6.20912 9.38289L6.44964 10.0155L6.93821 11.3008L7.67482 10.4252L7.6351 9.60225L7.60932 9.06866L7.51644 5.80961L9.26026 3.79561C9.795 2.95905 8.97732 2.18535 8.32607 2.79483L6.54951 4.77148L2.01065 4.10864L1.21766 5.01516L4.78583 6.62541L3.3416 8.23626C1.90059 9.53585 0.707082 10.0125 0.183616 8.25761C0.183616 8.25701 0.183079 8.25642 0.183079 8.25583C0.0633529 7.73409 0 7.18805 0 6.62541C0 2.96617 2.68659 0 6.00027 0C9.31395 0 12 2.96617 12 6.62541Z" fill="url(#paint0_linear_2832_2061)"/>
<path d="M4.85449 1.55389C5.1224 1.49994 5.26897 1.33452 5.27219 1.03809C5.28132 1.29124 5.37742 1.49104 5.69687 1.55389C5.45151 1.52425 5.28454 1.62741 5.27541 1.99973C5.25501 1.71041 5.12079 1.55508 4.85449 1.55389Z" fill="white"/>
<path d="M5.59961 2.3C5.74672 2.27035 5.82725 2.17905 5.8294 2.0166C5.83477 2.15593 5.88684 2.26561 6.06294 2.3C5.92819 2.2834 5.83638 2.34031 5.83155 2.54486C5.81973 2.38656 5.74618 2.30118 5.59961 2.3Z" fill="white"/>
<path d="M4.36426 2.71015C4.51137 2.68051 4.5919 2.58921 4.59405 2.42676C4.59942 2.56608 4.65149 2.67577 4.82759 2.71015C4.69283 2.69355 4.60103 2.75047 4.59619 2.95501C4.58438 2.79612 4.51083 2.71075 4.36426 2.71015Z" fill="white"/>
<path d="M2.08203 7.47383C2.22914 7.44418 2.30967 7.35288 2.31182 7.19043C2.31719 7.32976 2.36927 7.43944 2.54537 7.47383C2.41061 7.45722 2.3188 7.51414 2.31397 7.71868C2.30216 7.55979 2.2286 7.47442 2.08203 7.47383Z" fill="white"/>
<path d="M1.35254 6.91075C1.62206 6.8568 1.76863 6.6902 1.77185 6.39258C1.78098 6.64692 1.87708 6.84791 2.19868 6.91075C1.95224 6.88052 1.7842 6.98427 1.77561 7.35838C1.75467 7.06846 1.61991 6.91194 1.35254 6.91075Z" fill="white"/>
<path d="M9.4834 6.48358C9.75131 6.42963 9.89788 6.26421 9.9011 5.96777C9.91022 6.22093 10.0063 6.42073 10.3258 6.48358C10.0804 6.45393 9.91345 6.55709 9.90432 6.92942C9.88392 6.64069 9.74916 6.48476 9.4834 6.48358Z" fill="white"/>
<path d="M10.2285 7.22968C10.3756 7.20004 10.4562 7.10874 10.4583 6.94629C10.4637 7.08562 10.5158 7.1953 10.6919 7.22968C10.5571 7.21308 10.4653 7.27 10.4605 7.47454C10.4486 7.31565 10.3751 7.23028 10.2285 7.22968Z" fill="white"/>
<path d="M9.67285 7.8039C9.81996 7.77426 9.90049 7.68296 9.90264 7.52051C9.90801 7.65983 9.96009 7.76952 10.1362 7.8039C10.0014 7.7873 9.90962 7.84422 9.90479 8.04876C9.89298 7.88987 9.81942 7.8045 9.67285 7.8039Z" fill="white"/>
<path d="M8.99316 7.63984C9.14027 7.6102 9.2208 7.51889 9.22295 7.35645C9.22832 7.49577 9.2804 7.60545 9.4565 7.63984C9.32174 7.62324 9.22993 7.68016 9.2251 7.8847C9.21329 7.7264 9.13973 7.64043 8.99316 7.63984Z" fill="white"/>
<path d="M10.5644 10.9253L10.5638 10.9258C10.3394 11.2371 9.16147 12.5029 8.22836 13.5232L4.61295 14.4754L4.57483 14.4855C4.57375 14.4837 4.57268 14.4825 4.57161 14.4813C4.52866 14.4303 4.12814 13.8748 3.75929 13.1242C3.41085 12.5225 3.24173 11.616 3.48065 10.7521V10.7515C3.48065 10.7515 4.61509 9.24444 5.59921 10.3004C5.59921 10.3004 5.82363 9.78159 6.20912 9.38258L6.44964 10.0152L6.93821 11.3005L7.67482 10.4249L7.63509 9.60195L7.60932 9.06836C7.87347 9.21361 8.15641 9.48278 8.45278 9.92507C8.45278 9.92507 10.0216 8.61896 10.5644 10.9253Z" fill="#D36C7B"/>
<path d="M3.89355 13.3877C3.89678 13.3776 4.64735 12.8991 5.1531 13.7404C5.15149 13.7363 5.69911 13.1446 6.13023 13.5234C6.13238 13.5223 7.14066 11.7596 8.22786 13.5234L5.99977 15.9999C4.69298 14.8865 4.26079 14.0576 3.89355 13.3877Z" fill="#D8B6BF"/>
</g>
<defs>
<linearGradient id="paint0_linear_2832_2061" x1="0" y1="8.00001" x2="12" y2="8.00001" gradientUnits="userSpaceOnUse">
<stop stop-color="#D74958"/>
<stop offset="1" stop-color="#8E236A"/>
</linearGradient>
<clipPath id="clip0_2832_2061">
<rect width="12" height="16" fill="white"/>
</clipPath>
</defs>
</svg>
