<svg width="89" height="87" viewBox="0 0 89 87" fill="none" xmlns="http://www.w3.org/2000/svg">
<rect opacity="0.1" x="0.267578" y="0.755859" width="87.9676" height="85.4355" rx="7" fill="#998CEB"/>
<g clip-path="url(#clip0_2730_2046)">
<path d="M19.0059 29.1621C19.2552 28.2023 19.4095 27.2077 19.7683 26.2892C21.5082 21.8488 26.0564 19.0933 30.7933 19.5564C35.9285 20.0583 39.8396 23.6936 40.61 28.539C41.7048 35.4279 35.7372 41.4873 28.6537 40.6758C23.6055 40.0979 19.7287 36.358 19.0942 31.4559C19.0824 31.3656 19.0362 31.2791 19.0059 31.1901C19.0059 30.5141 19.0059 29.8381 19.0059 29.1621ZM30.4873 29.6162C30.4873 28.1069 30.4873 26.6362 30.4873 25.1578C31.4383 25.421 32.0372 26.1654 32.1335 27.1768C32.1796 27.6618 32.4342 27.9495 32.8009 27.8953C33.2679 27.8269 33.3365 27.4954 33.318 27.1045C33.2534 25.6996 32.2957 24.4793 30.9173 24.0561C30.7656 24.0097 30.6152 23.9619 30.4793 23.9194C30.4371 23.2808 30.2393 22.9634 29.8739 22.9944C29.3001 23.0434 29.2605 23.4808 29.2631 23.922C27.514 24.3851 26.3704 25.4094 26.3361 27.2284C26.3004 29.1338 27.4626 30.22 29.2565 30.7399C29.2565 32.226 29.2565 33.7005 29.2565 35.1802C28.3015 34.979 27.5945 34.1559 27.5008 33.1523C27.4547 32.6633 27.2436 32.4234 26.8808 32.4505C26.5062 32.4789 26.2807 32.7911 26.3216 33.2684C26.4099 34.2824 26.8413 35.1364 27.7 35.7195C28.163 36.033 28.7052 36.2381 29.2605 36.5154C29.2618 36.8418 29.3172 37.2508 29.8514 37.2611C30.4226 37.2727 30.4622 36.8328 30.4793 36.4277C32.3854 35.8007 33.2969 34.7261 33.3207 33.0942C33.3457 31.3875 32.4751 30.3167 30.4873 29.6162Z" fill="#998CEB"/>
<path d="M66.1973 39.5931C66.1973 48.1487 66.1973 56.6385 66.1973 65.1554C63.8005 65.1554 61.4367 65.1554 59.0227 65.1554C59.0227 56.6656 59.0227 48.1642 59.0227 39.5931C58.1403 39.5931 57.3092 39.6047 56.4782 39.5853C56.2632 39.5802 55.9928 39.5389 55.8464 39.4086C55.5601 39.1532 55.6485 38.8448 55.8543 38.5417C57.1061 36.6918 58.3474 34.8341 59.5926 32.979C60.3497 31.8502 61.1056 30.7188 61.8667 29.5926C62.2598 29.0108 62.6278 29.0082 63.038 29.5849C65.1407 32.5417 67.2473 35.4972 69.3314 38.4669C69.4739 38.6694 69.5544 39.0513 69.4515 39.2396C69.3473 39.4292 68.9845 39.566 68.7273 39.5789C67.9081 39.6189 67.0863 39.5931 66.1973 39.5931Z" fill="#998CEB"/>
<path d="M50.3888 24.1367C49.3863 23.7187 48.4194 23.32 47.4565 22.9111C47.2784 22.835 47.0885 22.7498 46.9552 22.6183C46.6268 22.2957 46.7072 21.9049 47.1359 21.7307C49.7306 20.6793 52.3279 19.6357 54.9252 18.592C55.3249 18.432 55.6098 18.5211 55.7879 18.9455C56.8247 21.4288 57.8839 23.9032 58.9036 26.3942C58.9933 26.6123 58.9511 27.0186 58.7994 27.1567C58.6424 27.2999 58.2388 27.314 58.0066 27.225C57.0278 26.8509 56.0741 26.4188 55.0729 25.9905C55.007 26.1607 54.9371 26.3168 54.8843 26.4781C50.9468 38.6665 42.7882 47.186 31.0971 52.6223C29.8677 53.1938 28.608 53.7136 27.3271 54.1626C26.7929 54.3496 26.1571 54.3793 25.5859 54.32C24.4647 54.2026 23.6587 53.3576 23.5492 52.3333C23.4266 51.1877 24.1151 50.1647 25.2561 49.7377C26.2982 49.3481 27.335 48.9418 28.3613 48.5135C31.7382 47.1047 34.838 45.2509 37.6833 42.9791C43.2684 38.5233 47.3668 33.0445 49.7306 26.3594C49.848 26.0253 49.9496 25.686 50.0498 25.3467C50.1646 24.9636 50.2675 24.5766 50.3888 24.1367Z" fill="#998CEB"/>
<path d="M56.4111 65.1636C53.9985 65.1636 51.636 65.1636 49.2207 65.1636C49.2207 64.9882 49.2207 64.8321 49.2207 64.6773C49.2207 59.192 49.2207 53.7067 49.2207 48.2201C49.2207 47.4512 49.3539 47.3196 50.1335 47.3196C51.9591 47.3184 53.7848 47.3171 55.6104 47.3209C56.204 47.3222 56.4256 47.5299 56.4269 48.0937C56.4296 53.6912 56.4282 59.29 56.4282 64.8876C56.4269 64.9663 56.4177 65.045 56.4111 65.1636Z" fill="#998CEB"/>
<path d="M46.5529 65.1608C44.1376 65.1608 41.7765 65.1608 39.3691 65.1608C39.3612 65.0021 39.3467 64.8473 39.3467 64.6938C39.3454 61.092 39.3454 57.4889 39.3467 53.887C39.3467 53.1569 39.4918 53.015 40.2371 53.015C42.0957 53.0137 43.953 53.0124 45.8116 53.0163C46.3603 53.0175 46.5489 53.1607 46.5489 53.6277C46.5555 57.454 46.5529 61.2803 46.5529 65.1608Z" fill="#998CEB"/>
<path d="M29.5729 65.1469C29.5729 62.5423 29.5703 59.9699 29.5756 57.3988C29.5769 56.9873 29.8117 56.7809 30.2298 56.7809C32.186 56.7796 34.1436 56.777 36.0998 56.7835C36.5338 56.7848 36.7752 57.0221 36.7765 57.4466C36.7818 60.0022 36.7791 62.5578 36.7791 65.1469C34.381 65.1469 32.0067 65.1469 29.5729 65.1469Z" fill="#998CEB"/>
<path d="M47.3479 66.3413C54.0766 66.3413 60.8053 66.3413 67.534 66.3413C67.6818 66.3413 67.8308 66.3362 67.9785 66.3452C68.3215 66.3658 68.5497 66.5387 68.5603 66.8793C68.5721 67.2353 68.3479 67.4392 67.9944 67.4933C67.8651 67.5127 67.7319 67.5011 67.6 67.5011C54.0595 67.5011 40.5203 67.5011 26.9798 67.5011C26.8321 67.5011 26.6329 67.5527 26.5458 67.4804C26.3427 67.3101 26.0789 67.0883 26.0591 66.8677C26.0446 66.7103 26.3651 66.4884 26.5762 66.3594C26.6949 66.2871 26.8967 66.3426 27.0616 66.3426C33.8246 66.3413 40.5862 66.3413 47.3479 66.3413Z" fill="#998CEB"/>
<path d="M29.2572 25.1621C29.2572 26.6263 29.2572 28.0531 29.2572 29.4825C28.2679 29.2748 27.5134 28.355 27.5002 27.3604C27.4857 26.3464 28.202 25.4356 29.2572 25.1621Z" fill="#998CEB"/>
<path d="M30.4883 30.8457C31.5317 31.1708 32.1583 32.039 32.1371 33.0827C32.1174 34.0824 31.4697 34.9248 30.4883 35.1958C30.4883 33.7522 30.4883 32.3138 30.4883 30.8457Z" fill="#998CEB"/>
</g>
<defs>
<clipPath id="clip0_2730_2046">
<rect width="50.4909" height="49" fill="white" transform="translate(19.0059 18.5176)"/>
</clipPath>
</defs>
</svg>
