<svg width="87" height="86" viewBox="0 0 87 86" fill="none" xmlns="http://www.w3.org/2000/svg">
<rect opacity="0.1" x="0.235352" y="0.517578" width="86" height="85" rx="7" fill="#5281CE"/>
<path d="M17.2367 52.8145C17.3888 51.8596 17.5028 50.8965 17.6997 49.9511C18.4817 46.194 20.0839 42.8143 22.373 39.7465C24.3186 37.1378 26.472 34.7157 28.7218 32.37C29.1725 31.9 29.607 31.6548 30.2668 31.6044C33.9124 31.3278 37.5538 31.3101 41.1925 31.6902C41.3486 31.7065 41.5102 31.8387 41.6351 31.9545C41.9311 32.2283 42.1646 32.5893 42.4959 32.8004C46.7253 35.4936 49.6525 39.3038 51.8493 43.7393C52.315 44.6778 52.6911 45.6614 53.1555 46.7294C52.797 46.7294 52.5513 46.7376 52.3055 46.728C50.7238 46.6654 49.4557 47.2212 48.7646 48.7046C48.0762 50.1827 48.4319 51.5204 49.5548 52.7246C48.8501 53.4344 48.4238 54.2858 48.4306 55.3006C48.4374 56.3005 48.8379 57.1465 49.5493 57.8344C47.9282 59.589 48.1984 61.6078 49.5588 63.0069C48.8474 63.6907 48.4767 64.5367 48.4048 65.5284C48.3953 65.6578 48.1835 65.8063 48.0341 65.8853C46.4157 66.7462 44.6805 67.1849 42.8571 67.1944C38.1919 67.2162 33.5254 67.2612 28.8602 67.1862C23.1876 67.095 18.623 63.0832 17.5436 57.3726C17.4241 56.7419 17.3372 56.1044 17.2354 55.4709C17.2367 54.5855 17.2367 53.7 17.2367 52.8145ZM35.7371 39.0572C29.3409 39.0273 23.9982 44.3223 23.9548 50.7344C23.9113 57.3318 29.1209 62.6867 35.6204 62.7249C42.1931 62.763 47.5372 57.4748 47.5412 50.9292C47.5453 44.3809 42.2828 39.0886 35.7371 39.0572Z" fill="#5281CE"/>
<path d="M69.3737 31.666C69.1089 32.1292 68.7111 32.2831 68.1857 32.2681C67.2217 32.2395 66.255 32.26 65.2177 32.26C65.2177 32.4956 65.2177 32.6932 65.2177 32.8907C65.2177 36.3808 65.2177 39.8695 65.2177 43.3596C65.2177 44.2886 64.9678 44.5379 64.0446 44.5393C62.4832 44.5406 60.9232 44.542 59.3618 44.5393C58.5865 44.5379 58.2864 44.2396 58.2851 43.4549C58.2824 39.9485 58.2837 36.4421 58.2837 32.9356C58.2837 32.734 58.2837 32.5324 58.2837 32.2613C57.389 32.2613 56.5309 32.2613 55.6728 32.2613C55.5031 32.2613 55.3334 32.2572 55.1637 32.2613C54.7604 32.2722 54.4156 32.1537 54.2336 31.7682C54.053 31.3868 54.1739 31.0517 54.4332 30.7343C56.6232 28.0465 58.8037 25.3507 60.9951 22.6643C61.4866 22.0608 62.0338 22.0636 62.5253 22.6657C64.7167 25.3534 66.8999 28.0452 69.0845 30.737C69.1904 30.8678 69.2773 31.0149 69.3737 31.1552C69.3737 31.3255 69.3737 31.4957 69.3737 31.666Z" fill="#5281CE"/>
<path d="M25.5127 20.9738C26.679 21.2272 27.7774 21.4152 28.8473 21.7108C30.9368 22.287 33.0142 22.9109 35.0861 23.5471C35.5667 23.6942 35.9523 23.6615 36.38 23.3986C38.9502 21.8116 41.5516 20.2791 44.3526 19.1307C45.174 18.7942 46.0361 18.5599 46.8793 18.2793C46.9105 18.327 46.9431 18.3747 46.9743 18.4223C46.7843 18.8651 46.6118 19.316 46.4014 19.7492C44.7993 23.0499 43.1876 26.3452 41.5923 29.65C41.4633 29.9183 41.318 29.9606 41.0465 29.9524C38.4206 29.8679 35.7948 29.7753 33.1676 29.7426C32.1194 29.7303 31.0699 29.872 30.019 29.9183C29.8724 29.9251 29.6375 29.8339 29.5832 29.7208C28.2648 26.9432 26.9655 24.1574 25.6648 21.373C25.6227 21.2817 25.5928 21.185 25.5127 20.9738Z" fill="#5281CE"/>
<path d="M59.2381 48.4346C61.663 48.4346 64.0892 48.4264 66.5141 48.4373C67.8013 48.4428 68.6308 49.5516 68.2412 50.7082C67.9886 51.4574 67.3423 51.8743 66.4042 51.8743C63.2488 51.877 60.0948 51.8756 56.9394 51.8756C55.2776 51.8756 53.6143 51.8879 51.9525 51.8715C50.6436 51.8593 49.8073 50.7082 50.2417 49.5503C50.5078 48.8405 51.1378 48.4359 52.0122 48.4346C54.4208 48.4319 56.8294 48.4346 59.2381 48.4346Z" fill="#5281CE"/>
<path d="M59.2422 57.0029C56.7983 57.0029 54.3544 57.007 51.9105 57.0002C51.009 56.9975 50.3396 56.4376 50.1713 55.5821C50.0219 54.8234 50.4482 54.0142 51.1909 53.7254C51.453 53.6246 51.7517 53.5796 52.0341 53.5796C56.8364 53.5715 61.64 53.5701 66.4423 53.5755C67.5611 53.5769 68.3309 54.2798 68.3404 55.2729C68.3513 56.2782 67.5529 57.0002 66.4206 57.0002C64.0269 57.0043 61.6346 57.0029 59.2422 57.0029Z" fill="#5281CE"/>
<path d="M59.2543 67.2778C56.8959 67.2778 54.5362 67.2833 52.1778 67.2724C51.8601 67.271 51.5261 67.2438 51.2301 67.1402C50.4834 66.8773 50.0326 66.0654 50.1616 65.3107C50.3055 64.473 50.9681 63.8708 51.8167 63.8559C52.8689 63.8368 53.9211 63.8504 54.9734 63.8504C58.8253 63.8504 62.6785 63.8477 66.5304 63.8531C67.4835 63.8545 68.1746 64.4389 68.3212 65.3339C68.4448 66.0859 67.9777 66.8978 67.2296 67.1525C66.9486 67.2479 66.6308 67.2737 66.3308 67.2751C63.9724 67.2819 61.614 67.2778 59.2543 67.2778Z" fill="#5281CE"/>
<path d="M59.186 62.1279C56.7434 62.1279 54.3022 62.1401 51.8596 62.1224C50.5807 62.1143 49.7687 60.8719 50.282 59.7358C50.6024 59.026 51.1794 58.7141 51.952 58.7168C54.3606 58.7236 56.7678 58.7195 59.1764 58.7195C61.6529 58.7195 64.1281 58.7182 66.6046 58.7223C67.3378 58.7236 67.87 59.0655 68.1768 59.7303C68.4674 60.3624 68.3669 60.9632 67.9433 61.4999C67.5822 61.959 67.0907 62.1333 66.5109 62.132C64.0711 62.1238 61.6285 62.1292 59.186 62.1279Z" fill="#5281CE"/>
<path d="M42.7451 31.131C43.1131 30.4131 43.4457 29.7456 43.8014 29.0931C43.8612 28.9827 44.0187 28.8778 44.1449 28.8574C47.0899 28.3861 49.789 27.2077 52.4719 25.9762C52.6104 25.9122 52.7475 25.8455 52.8914 25.7923C53.3938 25.6084 53.8541 25.7869 54.0414 26.2324C54.2207 26.6574 54.0577 27.1273 53.5961 27.3412C50.9648 28.5577 48.3213 29.7429 45.4647 30.3463C45.3194 30.3777 45.1782 30.4267 45.0818 30.3763C47.2976 31.0411 49.5365 31.6405 51.7224 32.3965C53.1399 32.8869 54.4854 33.5926 55.8513 34.2274C56.4446 34.5039 56.6225 34.9943 56.3713 35.467C56.1337 35.9152 55.6463 36.0392 55.0964 35.7504C51.8935 34.0612 48.4951 32.9632 44.9596 32.2194C44.1775 32.0546 43.4783 31.5029 42.7451 31.131Z" fill="#5281CE"/>
<path d="M25.6618 50.8448C25.7242 45.1615 30.24 40.7138 35.899 40.7601C41.3978 40.8064 45.8947 45.4408 45.8403 51.0056C45.786 56.5567 41.1847 61.0753 35.6614 61.0017C30.0649 60.9282 25.6007 56.3946 25.6618 50.8448ZM34.8875 43.866C34.7776 43.9001 34.7151 43.9205 34.6526 43.9396C32.7287 44.5349 31.5434 45.983 31.5271 47.7539C31.5122 49.4989 32.6636 50.9661 34.563 51.575C34.84 51.6635 34.8902 51.8025 34.8875 52.0504C34.878 52.8337 34.8848 53.6156 34.8848 54.3989C34.8848 54.9506 34.8848 55.501 34.8848 56.0745C33.9235 55.7803 33.3316 55.0583 33.2365 54.136C33.1686 53.4712 32.8292 53.1062 32.3201 53.1498C31.777 53.1961 31.4701 53.647 31.5502 54.3131C31.762 56.069 32.7573 57.1956 34.396 57.7446C34.7993 57.8795 34.9378 58.0579 34.8902 58.4571C34.8644 58.6737 34.8753 58.9012 34.9052 59.1191C34.9731 59.5986 35.322 59.8888 35.7755 59.8724C36.229 59.8575 36.548 59.5387 36.5861 59.0564C36.5983 58.9039 36.6105 58.7472 36.5874 58.5974C36.5114 58.107 36.6702 57.8713 37.1862 57.7078C38.8806 57.1725 39.9627 55.6508 39.9505 53.9562C39.9396 52.3106 38.81 50.8217 37.1509 50.2659C36.9771 50.2073 36.8006 50.1569 36.6173 50.0997C36.6173 48.6285 36.6173 47.1749 36.6173 45.7133C37.5568 45.9762 38.1298 46.6723 38.2398 47.6599C38.3131 48.322 38.6525 48.6693 39.1807 48.6257C39.7034 48.5821 40.0021 48.1776 39.9396 47.5101C39.7971 45.968 38.9689 44.8973 37.6043 44.2284C37.2907 44.0745 36.9486 43.9777 36.5915 43.8442C36.5915 43.674 36.5915 43.5051 36.5915 43.3361C36.5915 43.1659 36.5956 42.9956 36.5901 42.8253C36.5725 42.2804 36.2534 41.9126 35.7809 41.8908C35.2948 41.8676 34.9201 42.2395 34.8902 42.8021C34.8712 43.1563 34.8875 43.5105 34.8875 43.866Z" fill="#5281CE"/>
<path d="M36.6104 56.0526C36.6104 54.6945 36.6104 53.3404 36.6104 51.9863C37.4263 52.0626 38.1921 52.9562 38.2356 53.8867C38.2844 54.9124 37.5784 55.8633 36.6104 56.0526Z" fill="#5281CE"/>
<path d="M34.8479 49.8244C33.9206 49.5942 33.2336 48.7169 33.2295 47.7824C33.2254 46.8438 33.9138 45.9584 34.8479 45.7363C34.8479 47.104 34.8479 48.4608 34.8479 49.8244Z" fill="#5281CE"/>
</svg>
