<svg width="89" height="86" viewBox="0 0 89 86" fill="none" xmlns="http://www.w3.org/2000/svg">
<rect opacity="0.1" x="0.235352" y="0.015625" width="87.9676" height="85.4355" rx="7" fill="#50C878"/>
<g clip-path="url(#clip0_2730_2082)">
<path d="M44.7314 67.0147C41.6613 67.0147 38.5912 67.0147 35.5184 67.0147C34.3939 67.0147 34.1389 66.7591 34.1416 65.6339C34.1524 60.477 37.6063 56.2845 42.6999 55.2463C48.6711 54.0289 54.6262 58.3215 55.23 64.2821C55.2837 64.8197 55.3105 65.3625 55.3132 65.9027C55.3185 66.688 54.9724 67.0121 54.1646 67.0147C51.0193 67.0174 47.8767 67.0147 44.7314 67.0147Z" fill="#50C878"/>
<path d="M37.0246 55.8408C33.9518 58.7658 33.6485 59.2955 32.3496 63.9649C32.1886 63.9728 32.0115 63.9886 31.8343 63.9886C27.7149 63.9912 23.5927 63.9912 19.4733 63.9886C18.5152 63.9886 18.2361 63.7093 18.2334 62.758C18.22 57.4482 21.6498 53.1846 26.8695 52.236C30.9058 51.5008 34.2818 52.8025 37.0246 55.8408Z" fill="#50C878"/>
<path d="M57.0798 63.9953C56.5994 60.6882 55.0697 57.9925 52.4424 55.8791C53.9023 54.1189 55.7192 52.9489 57.9198 52.3902C64.9134 50.6115 71.5233 55.8949 71.2281 63.0097C71.2013 63.6237 70.8873 63.9874 70.2915 63.99C65.9118 64.0005 61.5347 63.9953 57.0798 63.9953Z" fill="#50C878"/>
<path d="M44.6914 54.0148C40.988 54.0017 37.9876 51.0477 38.001 47.427C38.0144 43.8327 41.0819 40.8788 44.7719 40.9025C48.4701 40.9262 51.4758 43.8933 51.4624 47.5061C51.4489 51.1109 48.4164 54.0254 44.6914 54.0148Z" fill="#50C878"/>
<path d="M28.8061 50.9925C25.0892 50.9846 22.0835 48.0544 22.0889 44.4364C22.0916 40.8289 25.1241 37.8775 28.8222 37.8828C32.515 37.8881 35.5556 40.8579 35.5529 44.4522C35.5475 48.057 32.5123 51.0004 28.8061 50.9925Z" fill="#50C878"/>
<path d="M60.6184 50.9939C56.915 50.9808 53.8931 48.0189 53.9092 44.4167C53.9253 40.8277 56.9982 37.8631 60.6802 37.8869C64.3863 37.9106 67.384 40.8619 67.376 44.4799C67.3652 48.0848 64.338 51.0045 60.6184 50.9939Z" fill="#50C878"/>
<path d="M40.5989 28.5299C40.7411 27.7157 40.8861 26.8066 41.0632 25.9027C41.133 25.5496 41.0632 25.2993 40.7841 25.0463C40.1722 24.5008 39.6006 23.9132 39.0021 23.3493C38.6935 23.0594 38.57 22.7169 38.7015 22.3216C38.8357 21.9105 39.1766 21.7551 39.5872 21.6997C40.4057 21.5917 41.2215 21.4599 42.0427 21.3624C42.4077 21.3203 42.6251 21.1701 42.7781 20.8275C43.1108 20.087 43.5027 19.3703 43.8542 18.6377C44.0474 18.2372 44.34 18.0079 44.7935 18.0158C45.2256 18.0237 45.4993 18.2583 45.6818 18.6351C46.0441 19.3834 46.444 20.116 46.7821 20.8749C46.9324 21.2096 47.1578 21.3203 47.4879 21.3624C48.3064 21.4652 49.125 21.5917 49.9435 21.7024C50.3782 21.7603 50.7942 21.9342 50.8264 22.3743C50.8506 22.7011 50.7056 23.12 50.4856 23.3677C49.9193 24.0054 49.2511 24.5562 48.6661 25.1754C48.5104 25.3388 48.4138 25.6471 48.4406 25.8711C48.5426 26.7117 48.7546 27.5418 48.8298 28.3824C48.8593 28.7118 48.7251 29.1307 48.5104 29.3864C48.2206 29.7342 47.7831 29.6209 47.3994 29.4153C46.6882 29.0385 45.9529 28.7012 45.2631 28.2928C44.874 28.0635 44.5761 28.1004 44.2058 28.3086C43.4731 28.7197 42.7244 29.1097 41.9676 29.4707C41.2618 29.808 40.5748 29.3653 40.5989 28.5299Z" fill="#50C878"/>
<path d="M54.0586 32.075C54.2088 31.2397 54.3591 30.349 54.5336 29.4636C54.6033 29.1158 54.5416 28.8575 54.2598 28.6045C53.6479 28.0591 53.0763 27.4688 52.4779 26.9075C52.1692 26.6203 52.027 26.2883 52.1558 25.8851C52.2873 25.4767 52.604 25.3106 53.028 25.2579C53.9029 25.1473 54.7751 25.0208 55.6419 24.86C55.8352 24.8231 56.0633 24.6545 56.1572 24.4832C56.5732 23.719 56.9033 22.9127 57.3487 22.1669C57.5205 21.8824 57.8882 21.6109 58.2129 21.5398C58.6423 21.4449 58.9402 21.777 59.1307 22.1696C59.5011 22.9364 59.8714 23.7006 60.2793 24.4463C60.3813 24.6281 60.6202 24.8152 60.8241 24.8548C61.6883 25.0208 62.5631 25.1367 63.438 25.2579C63.8594 25.3159 64.1626 25.4951 64.3048 25.9009C64.4524 26.3199 64.2646 26.6361 63.9747 26.9154C63.3575 27.511 62.7537 28.117 62.1203 28.6941C61.8734 28.9208 61.8171 29.1421 61.8788 29.4583C62.0398 30.2726 62.1552 31.0947 62.3055 31.9116C62.386 32.3385 62.3297 32.7101 61.9486 32.9683C61.5702 33.2265 61.1864 33.1422 60.808 32.9393C60.0646 32.544 59.3293 32.1356 58.5671 31.7799C58.3632 31.685 58.0358 31.6876 57.8318 31.7851C57.0187 32.1646 56.2431 32.6152 55.4353 33.0052C54.7107 33.3557 54.0022 32.8892 54.0586 32.075Z" fill="#50C878"/>
<path d="M27.1508 32.0279C27.2769 31.2821 27.3843 30.4389 27.5748 29.6141C27.6875 29.124 27.5667 28.8078 27.1964 28.4836C26.6194 27.9803 26.0907 27.4243 25.5352 26.8999C25.2293 26.6101 25.0897 26.2754 25.2239 25.8749C25.3608 25.4691 25.6855 25.3083 26.1068 25.2583C26.9092 25.1608 27.7063 25.0211 28.5087 24.9236C28.9032 24.8762 29.1635 24.7365 29.3299 24.3412C29.6171 23.6587 29.9874 23.0105 30.3068 22.3412C30.5134 21.909 30.7603 21.5612 31.3158 21.5665C31.8445 21.5744 32.0834 21.8985 32.282 22.3175C32.6308 23.0527 32.9905 23.7852 33.3796 24.4994C33.4655 24.6548 33.6748 24.8129 33.8519 24.8446C34.7375 25.0053 35.6285 25.1291 36.5195 25.2556C36.9382 25.3136 37.3192 25.4875 37.3514 25.9091C37.3756 26.2254 37.2629 26.6338 37.0562 26.8657C36.49 27.5034 35.8539 28.0831 35.2206 28.6602C34.9603 28.8974 34.8798 29.1213 34.9522 29.4639C35.1267 30.294 35.3011 31.1293 35.3843 31.9699C35.4138 32.2809 35.2689 32.684 35.0623 32.9265C34.7885 33.2427 34.3672 33.1768 33.9942 32.9818C33.2642 32.5997 32.5208 32.244 31.8096 31.8302C31.4286 31.6089 31.1334 31.6247 30.7603 31.8382C30.0304 32.2545 29.2816 32.6419 28.5221 33.0055C27.7761 33.3586 27.1052 32.9106 27.1508 32.0279Z" fill="#50C878"/>
</g>
<defs>
<clipPath id="clip0_2730_2082">
<rect width="53" height="49" fill="white" transform="translate(18.2354 18.0156)"/>
</clipPath>
</defs>
</svg>
