<svg width="85" height="85" viewBox="0 0 85 85" fill="none" xmlns="http://www.w3.org/2000/svg">
<rect opacity="0.1" width="85" height="85" rx="7" fill="#FF9A9F"/>
<g clip-path="url(#clip0_569_1349)">
<path d="M41.6076 17.7617C41.9292 17.7617 42.2239 17.7617 42.5455 17.7617C43.7513 18.2253 44.1801 19.1524 44.0729 20.434C44.0461 20.8975 44.0729 21.3338 44.0729 21.8246C45.4395 21.8246 46.7525 21.8246 48.0923 21.8246C48.0923 21.3065 48.1191 20.7884 48.0923 20.2976C48.012 19.0433 48.5211 18.198 49.7001 17.7617C49.9949 17.7617 50.2629 17.7617 50.5576 17.7617C51.7635 18.198 52.219 19.0978 52.1386 20.3794C52.1118 20.9793 52.1654 21.5792 52.1118 22.2063C52.085 22.5881 52.219 22.779 52.5673 22.9698C55.8365 24.715 57.7926 27.469 58.0606 31.2319C58.2482 33.686 58.1142 36.1401 58.141 38.5942C58.141 38.6215 58.1142 38.6488 58.0606 38.7033C54.5503 37.8035 51.1203 38.0761 47.7976 39.5213C44.4748 40.9938 41.7952 43.2843 40.1338 46.5836C36.3555 54.0823 37.7757 60.7628 43.403 66.7617C43.3226 66.7617 43.2154 66.7617 43.1082 66.7617C38.0437 66.7617 32.9524 66.789 27.8879 66.7617C23.3057 66.7344 19.3398 63.4351 18.2948 58.8814C18.1608 58.4178 18.0804 58.0088 18 57.5725C18 48.7378 18 39.9031 18 31.0683C18.0268 31.0138 18.0536 30.9593 18.0804 30.9047C18.5895 27.1963 20.4921 24.5241 23.7612 22.8335C23.8952 22.7517 24.0024 22.5336 24.0024 22.3972C24.0292 21.6883 24.056 21.0066 24.0024 20.2976C23.922 19.0433 24.4311 18.1707 25.6102 17.7617C25.9049 17.7617 26.1729 17.7617 26.4677 17.7617C27.6735 18.198 28.129 19.0978 28.0486 20.3521C28.0219 20.843 28.0486 21.3338 28.0486 21.7973C29.4153 21.7973 30.7015 21.7973 32.0413 21.7973C32.0413 21.2792 32.0681 20.8157 32.0413 20.3521C31.9341 19.0978 32.4165 18.198 33.5955 17.7617C33.8903 17.7617 34.1582 17.7617 34.453 17.7617C35.632 18.1707 36.1412 19.016 36.0608 20.2976C36.034 20.7884 36.0608 21.3065 36.0608 21.8246C37.4274 21.8246 38.7404 21.8246 40.0802 21.8246C40.0802 21.1156 40.0802 20.434 40.0802 19.7795C40.0802 19.1796 40.3214 18.6616 40.7769 18.2798C41.0181 18.0617 41.3129 17.9253 41.6076 17.7617ZM38.0437 36.1401C39.8659 36.1401 41.7148 36.1401 43.537 36.1401C45.0644 36.1401 46.6185 36.1401 48.1459 36.1401C49.0838 36.1401 49.9145 35.4039 50.0485 34.4768C50.2093 33.4679 49.7001 32.5135 48.7623 32.1863C48.4407 32.0772 48.0924 32.05 47.744 32.05C41.6344 32.05 35.5248 32.05 29.4153 32.05C28.9329 32.05 28.4774 32.0227 27.9951 32.05C27.0572 32.0772 26.2801 32.7317 26.0925 33.6315C25.7978 34.9676 26.7356 36.1401 28.129 36.1401C31.425 36.1401 34.7477 36.1401 38.0437 36.1401ZM31.559 40.2303C30.4603 40.2303 29.3349 40.2303 28.2362 40.2303C27.9683 40.2303 27.6735 40.2575 27.4055 40.3393C26.4677 40.6393 25.9049 41.5664 26.0389 42.4935C26.1729 43.5297 26.95 44.2659 27.9683 44.2659C30.3263 44.2932 32.6844 44.2659 35.0693 44.2659C35.2569 44.2659 35.4445 44.2386 35.632 44.1841C36.5699 43.9114 37.1594 42.957 37.0522 42.0299C36.9183 40.9938 36.1412 40.2575 35.1229 40.2303C33.9171 40.203 32.738 40.2303 31.559 40.2303Z" fill="#FF9A9F"/>
<path d="M54.0941 66.7363C47.4486 66.7363 42.0625 61.2282 42.0625 54.4386C42.0893 47.6762 47.4754 42.2227 54.1209 42.2227C60.7664 42.2227 66.1525 47.7307 66.1525 54.4931C66.1257 61.2828 60.7128 66.7636 54.0941 66.7363ZM52.7543 60.6283C53.9065 60.6011 55.0052 60.2466 55.8626 59.4286C57.7652 57.6016 59.6409 55.7474 61.5167 53.8932C62.0526 53.3751 62.2134 52.6934 62.0258 51.9572C61.6239 50.403 59.8285 49.9121 58.6763 51.0301C56.9077 52.748 55.1659 54.4931 53.3974 56.211C52.915 56.7018 52.5399 56.7018 52.0576 56.211C51.2269 55.3657 50.3962 54.5204 49.5387 53.7023C48.6812 52.857 47.4754 52.857 46.6715 53.6478C45.8676 54.4658 45.8676 55.7202 46.7251 56.5927C47.6094 57.4925 48.4936 58.3651 49.3779 59.2377C50.3158 60.1375 51.4412 60.6011 52.7543 60.6283Z" fill="#FF9A9F"/>
</g>
<defs>
<clipPath id="clip0_569_1349">
<rect width="48.1263" height="49" fill="white" transform="translate(18 17.7617)"/>
</clipPath>
</defs>
</svg>
