<svg width="24" height="24" viewBox="0 0 24 24" fill="none" xmlns="http://www.w3.org/2000/svg">
<path d="M12 15C12.7956 15 13.5587 14.6839 14.1213 14.1213C14.6839 13.5587 15 12.7956 15 12C15 11.2044 14.6839 10.4413 14.1213 9.87868C13.5587 9.31607 12.7956 9 12 9C11.2044 9 10.4413 9.31607 9.87868 9.87868C9.31607 10.4413 9 11.2044 9 12C9 12.7956 9.31607 13.5587 9.87868 14.1213C10.4413 14.6839 11.2044 15 12 15Z" fill="#666666"/>
<path fill-rule="evenodd" clip-rule="evenodd" d="M1.0893 11.447C2.5773 6.976 6.7943 3.75 11.7673 3.75C16.7373 3.75 20.9523 6.973 22.4423 11.44C22.5623 11.802 22.5623 12.192 22.4423 12.553C20.9553 17.024 16.7373 20.25 11.7653 20.25C6.7953 20.25 2.5793 17.027 1.0903 12.56C0.969901 12.1988 0.969901 11.8082 1.0903 11.447M17.0163 12C17.0163 13.3924 16.4632 14.7277 15.4786 15.7123C14.494 16.6969 13.1587 17.25 11.7663 17.25C10.3739 17.25 9.03855 16.6969 8.05399 15.7123C7.06942 14.7277 6.5163 13.3924 6.5163 12C6.5163 10.6076 7.06942 9.27225 8.05399 8.28769C9.03855 7.30312 10.3739 6.75 11.7663 6.75C13.1587 6.75 14.494 7.30312 15.4786 8.28769C16.4632 9.27225 17.0163 10.6076 17.0163 12Z" fill="#666666"/>
<path d="M22 5L3 19" stroke="#666666" stroke-width="1.5" stroke-linecap="round"/>
</svg>
