<svg width="24" height="24" viewBox="0 0 24 24" fill="none" xmlns="http://www.w3.org/2000/svg">
<path d="M12 15C12.7956 15 13.5587 14.6839 14.1213 14.1213C14.6839 13.5587 15 12.7956 15 12C15 11.2044 14.6839 10.4413 14.1213 9.87868C13.5587 9.31607 12.7956 9 12 9C11.2044 9 10.4413 9.31607 9.87868 9.87868C9.31607 10.4413 9 11.2044 9 12C9 12.7956 9.31607 13.5587 9.87868 14.1213C10.4413 14.6839 11.2044 15 12 15Z" fill="#666666"/>
<path fill-rule="evenodd" clip-rule="evenodd" d="M1.32318 11.447C2.81118 6.976 7.02818 3.75 12.0012 3.75C16.9712 3.75 21.1862 6.973 22.6762 11.44C22.7962 11.802 22.7962 12.192 22.6762 12.553C21.1892 17.024 16.9712 20.25 11.9992 20.25C7.02918 20.25 2.81318 17.027 1.32418 12.56C1.20379 12.1988 1.20379 11.8082 1.32418 11.447M17.2502 12C17.2502 13.3924 16.6971 14.7277 15.7125 15.7123C14.7279 16.6969 13.3926 17.25 12.0002 17.25C10.6078 17.25 9.27244 16.6969 8.28787 15.7123C7.30331 14.7277 6.75018 13.3924 6.75018 12C6.75018 10.6076 7.30331 9.27225 8.28787 8.28769C9.27244 7.30312 10.6078 6.75 12.0002 6.75C13.3926 6.75 14.7279 7.30312 15.7125 8.28769C16.6971 9.27225 17.2502 10.6076 17.2502 12Z" fill="#666666"/>
</svg>
